<svg width="84" height="323" viewBox="0 0 84 323" fill="none" xmlns="http://www.w3.org/2000/svg">
<path d="M19 12L19 323" stroke="white" stroke-width="4"/>
<path d="M40 12L-4.17233e-07 12" stroke="white" stroke-width="4"/>
<path d="M40 17H20" stroke="white"/>
<path d="M40 21H20" stroke="white"/>
<path d="M40 25H20" stroke="white"/>
<path d="M40 29H20" stroke="white"/>
<path d="M40 33H20" stroke="white"/>
<path d="M40 37H20" stroke="white"/>
<path d="M40 41H20" stroke="white"/>
<path d="M40 45H20" stroke="white"/>
<path d="M40 49H20" stroke="white"/>
<path d="M40 54H-4.17233e-07" stroke="white" stroke-width="4"/>
<path d="M40 59H20" stroke="white"/>
<path d="M40 63H20" stroke="white"/>
<path d="M40 67H20" stroke="white"/>
<path d="M40 71H20" stroke="white"/>
<path d="M40 75H20" stroke="white"/>
<path d="M40 79H20" stroke="white"/>
<path d="M40 83H20" stroke="white"/>
<path d="M40 87H20" stroke="white"/>
<path d="M40 91H20" stroke="white"/>
<path d="M40 96H-4.17233e-07" stroke="white" stroke-width="4"/>
<path d="M40 101H20" stroke="white"/>
<path d="M40 105H20" stroke="white"/>
<path d="M40 109H20" stroke="white"/>
<path d="M40 113H20" stroke="white"/>
<path d="M40 117H20" stroke="white"/>
<path d="M40 121H20" stroke="white"/>
<path d="M40 125H20" stroke="white"/>
<path d="M40 129H20" stroke="white"/>
<path d="M40 133H20" stroke="white"/>
<path d="M40 138H-4.17233e-07" stroke="white" stroke-width="4"/>
<path d="M40 143H20" stroke="white"/>
<path d="M40 147H20" stroke="white"/>
<path d="M40 151H20" stroke="white"/>
<path d="M40 155H20" stroke="white"/>
<path d="M40 159H20" stroke="white"/>
<path d="M40 163H20" stroke="white"/>
<path d="M40 167H20" stroke="white"/>
<path d="M40 171H20" stroke="white"/>
<path d="M40 175H20" stroke="white"/>
<path d="M40 180H-4.17233e-07" stroke="white" stroke-width="4"/>
<path d="M40 185H20" stroke="white"/>
<path d="M40 189H20" stroke="white"/>
<path d="M40 193H20" stroke="white"/>
<path d="M40 197H20" stroke="white"/>
<path d="M40 201H20" stroke="white"/>
<path d="M40 205H20" stroke="white"/>
<path d="M40 209H20" stroke="white"/>
<path d="M40 213H20" stroke="white"/>
<path d="M40 217H20" stroke="white"/>
<path d="M40 222H-4.17233e-07" stroke="white" stroke-width="4"/>
<path d="M40 227H20" stroke="white"/>
<path d="M40 231H20" stroke="white"/>
<path d="M40 235H20" stroke="white"/>
<path d="M40 239H20" stroke="white"/>
<path d="M40 243H20" stroke="white"/>
<path d="M40 247H20" stroke="white"/>
<path d="M40 251H20" stroke="white"/>
<path d="M40 255H20" stroke="white"/>
<path d="M40 259H20" stroke="white"/>
<path d="M40 264H-4.17233e-07" stroke="white" stroke-width="4"/>
<path d="M40 269H20" stroke="white"/>
<path d="M40 273H20" stroke="white"/>
<path d="M40 277H20" stroke="white"/>
<path d="M40 281H20" stroke="white"/>
<path d="M40 285H20" stroke="white"/>
<path d="M40 289H20" stroke="white"/>
<path d="M40 293H20" stroke="white"/>
<path d="M40 297H20" stroke="white"/>
<path d="M40 301H20" stroke="white"/>
<path d="M40 306H-4.17233e-07" stroke="white" stroke-width="4"/>
<path d="M53.3494 313.199C52.4025 313.199 51.5549 313.021 50.8068 312.666C50.0587 312.306 49.4645 311.814 49.0241 311.189C48.5885 310.564 48.3565 309.849 48.3281 309.044H50.8849C50.9323 309.641 51.1903 310.128 51.6591 310.507C52.1278 310.881 52.6913 311.068 53.3494 311.068C53.8655 311.068 54.3248 310.95 54.7273 310.713C55.1297 310.476 55.447 310.147 55.679 309.726C55.911 309.304 56.0246 308.824 56.0199 308.284C56.0246 307.735 55.9086 307.247 55.6719 306.821C55.4351 306.395 55.1108 306.061 54.6989 305.82C54.2869 305.573 53.8134 305.45 53.2784 305.45C52.8428 305.446 52.4143 305.526 51.9929 305.692C51.5715 305.857 51.2377 306.075 50.9915 306.345L48.6122 305.955L49.3722 298.455H57.8097V300.656H51.5526L51.1335 304.513H51.2188C51.4886 304.196 51.8698 303.933 52.3622 303.724C52.8546 303.511 53.3944 303.405 53.9815 303.405C54.8622 303.405 55.6482 303.613 56.3395 304.03C57.0308 304.442 57.5753 305.01 57.973 305.734C58.3707 306.459 58.5696 307.287 58.5696 308.22C58.5696 309.181 58.3471 310.038 57.902 310.791C57.4616 311.539 56.8485 312.129 56.0625 312.56C55.2812 312.986 54.3769 313.199 53.3494 313.199Z" fill="white"/>
<path d="M54.2088 256.455V271H51.5739V259.018H51.4886L48.0866 261.192V258.777L51.7017 256.455H54.2088ZM63.2784 271.277C62.1089 271.277 61.1051 270.981 60.267 270.389C59.4337 269.793 58.7921 268.933 58.3423 267.811C57.8973 266.684 57.6747 265.328 57.6747 263.741C57.6795 262.155 57.9044 260.806 58.3494 259.693C58.7992 258.576 59.4408 257.723 60.2741 257.136C61.1122 256.549 62.1136 256.256 63.2784 256.256C64.4432 256.256 65.4446 256.549 66.2827 257.136C67.1207 257.723 67.7623 258.576 68.2074 259.693C68.6572 260.811 68.8821 262.16 68.8821 263.741C68.8821 265.332 68.6572 266.691 68.2074 267.818C67.7623 268.94 67.1207 269.797 66.2827 270.389C65.4493 270.981 64.4479 271.277 63.2784 271.277ZM63.2784 269.054C64.1875 269.054 64.9048 268.607 65.4304 267.712C65.9607 266.812 66.2259 265.489 66.2259 263.741C66.2259 262.586 66.1051 261.616 65.8636 260.83C65.6222 260.044 65.2813 259.452 64.8409 259.054C64.4006 258.652 63.8797 258.45 63.2784 258.45C62.3741 258.45 61.6591 258.9 61.1335 259.8C60.608 260.695 60.3428 262.009 60.3381 263.741C60.3333 264.902 60.4493 265.877 60.6861 266.668C60.9276 267.458 61.2685 268.055 61.7088 268.457C62.1491 268.855 62.6723 269.054 63.2784 269.054Z" fill="white"/>
<path d="M48.2926 229V227.097L53.3423 222.146C53.8253 221.659 54.2277 221.225 54.5497 220.847C54.8717 220.468 55.1132 220.101 55.2741 219.746C55.4351 219.391 55.5156 219.012 55.5156 218.609C55.5156 218.15 55.4115 217.757 55.2031 217.43C54.9948 217.099 54.7083 216.843 54.3438 216.663C53.9792 216.483 53.5649 216.393 53.1009 216.393C52.6226 216.393 52.2036 216.493 51.8438 216.692C51.4839 216.886 51.2045 217.163 51.0057 217.523C50.8116 217.883 50.7145 218.311 50.7145 218.808H48.2074C48.2074 217.885 48.4181 217.082 48.8395 216.401C49.2609 215.719 49.8409 215.191 50.5795 214.817C51.3229 214.443 52.1752 214.256 53.1364 214.256C54.1117 214.256 54.9688 214.438 55.7074 214.803C56.446 215.167 57.0189 215.667 57.4261 216.301C57.8381 216.936 58.044 217.66 58.044 218.474C58.044 219.019 57.9399 219.554 57.7315 220.08C57.5232 220.605 57.1563 221.187 56.6307 221.827C56.1098 222.466 55.3783 223.24 54.4361 224.149L51.929 226.699V226.798H58.2642V229H48.2926ZM65.7713 229.199C64.8243 229.199 63.9768 229.021 63.2287 228.666C62.4806 228.306 61.8864 227.814 61.446 227.189C61.0104 226.564 60.7784 225.849 60.75 225.044H63.3068C63.3542 225.641 63.6122 226.128 64.081 226.507C64.5497 226.881 65.1132 227.068 65.7713 227.068C66.2874 227.068 66.7467 226.95 67.1491 226.713C67.5516 226.476 67.8688 226.147 68.1009 225.726C68.3329 225.304 68.4465 224.824 68.4418 224.284C68.4465 223.735 68.3305 223.247 68.0938 222.821C67.857 222.395 67.5327 222.061 67.1207 221.82C66.7088 221.573 66.2353 221.45 65.7003 221.45C65.2647 221.446 64.8362 221.526 64.4148 221.692C63.9934 221.857 63.6596 222.075 63.4134 222.345L61.0341 221.955L61.794 214.455H70.2315V216.656H63.9744L63.5554 220.513H63.6406C63.9105 220.196 64.2917 219.933 64.7841 219.724C65.2765 219.511 65.8163 219.405 66.4034 219.405C67.2841 219.405 68.0701 219.613 68.7614 220.03C69.4527 220.442 69.9972 221.01 70.3949 221.734C70.7926 222.459 70.9915 223.287 70.9915 224.22C70.9915 225.181 70.7689 226.038 70.3239 226.791C69.8835 227.539 69.2704 228.129 68.4844 228.56C67.7031 228.986 66.7988 229.199 65.7713 229.199Z" fill="white"/>
<path d="M48.0298 184.301V182.206L54.2017 172.455H55.9489V175.438H54.8835L50.7287 182.021V182.135H59.3438V184.301H48.0298ZM54.9688 187V183.662L54.9972 182.724V172.455H57.483V187H54.9688ZM66.9893 187.277C65.8198 187.277 64.8161 186.981 63.978 186.389C63.1446 185.793 62.5031 184.933 62.0533 183.811C61.6082 182.684 61.3857 181.328 61.3857 179.741C61.3904 178.155 61.6153 176.806 62.0604 175.693C62.5102 174.576 63.1518 173.723 63.9851 173.136C64.8232 172.549 65.8246 172.256 66.9893 172.256C68.1541 172.256 69.1555 172.549 69.9936 173.136C70.8317 173.723 71.4732 174.576 71.9183 175.693C72.3681 176.811 72.593 178.16 72.593 179.741C72.593 181.332 72.3681 182.691 71.9183 183.818C71.4732 184.94 70.8317 185.797 69.9936 186.389C69.1603 186.981 68.1589 187.277 66.9893 187.277ZM66.9893 185.054C67.8984 185.054 68.6158 184.607 69.1413 183.712C69.6716 182.812 69.9368 181.489 69.9368 179.741C69.9368 178.586 69.8161 177.616 69.5746 176.83C69.3331 176.044 68.9922 175.452 68.5518 175.054C68.1115 174.652 67.5907 174.45 66.9893 174.45C66.085 174.45 65.37 174.9 64.8445 175.8C64.3189 176.695 64.0537 178.009 64.049 179.741C64.0443 180.902 64.1603 181.877 64.397 182.668C64.6385 183.458 64.9794 184.055 65.4197 184.457C65.8601 184.855 66.3833 185.054 66.9893 185.054Z" fill="white"/>
<path d="M53.3494 145.199C52.4025 145.199 51.5549 145.021 50.8068 144.666C50.0587 144.306 49.4645 143.814 49.0241 143.189C48.5885 142.564 48.3565 141.849 48.3281 141.044H50.8849C50.9323 141.641 51.1903 142.128 51.6591 142.507C52.1278 142.881 52.6913 143.068 53.3494 143.068C53.8655 143.068 54.3248 142.95 54.7273 142.713C55.1297 142.476 55.447 142.147 55.679 141.726C55.911 141.304 56.0246 140.824 56.0199 140.284C56.0246 139.735 55.9086 139.247 55.6719 138.821C55.4351 138.395 55.1108 138.061 54.6989 137.82C54.2869 137.573 53.8134 137.45 53.2784 137.45C52.8428 137.446 52.4143 137.526 51.9929 137.692C51.5715 137.857 51.2377 138.075 50.9915 138.345L48.6122 137.955L49.3722 130.455H57.8097V132.656H51.5526L51.1335 136.513H51.2188C51.4886 136.196 51.8698 135.933 52.3622 135.724C52.8546 135.511 53.3944 135.405 53.9815 135.405C54.8622 135.405 55.6482 135.613 56.3395 136.03C57.0308 136.442 57.5753 137.01 57.973 137.734C58.3707 138.459 58.5696 139.287 58.5696 140.22C58.5696 141.181 58.3471 142.038 57.902 142.791C57.4616 143.539 56.8485 144.129 56.0625 144.56C55.2812 144.986 54.3769 145.199 53.3494 145.199ZM66.3253 145.277C65.1558 145.277 64.152 144.981 63.3139 144.389C62.4806 143.793 61.839 142.933 61.3892 141.811C60.9441 140.684 60.7216 139.328 60.7216 137.741C60.7263 136.155 60.9512 134.806 61.3963 133.693C61.8461 132.576 62.4877 131.723 63.321 131.136C64.1591 130.549 65.1605 130.256 66.3253 130.256C67.4901 130.256 68.4915 130.549 69.3295 131.136C70.1676 131.723 70.8092 132.576 71.2543 133.693C71.7041 134.811 71.929 136.16 71.929 137.741C71.929 139.332 71.7041 140.691 71.2543 141.818C70.8092 142.94 70.1676 143.797 69.3295 144.389C68.4962 144.981 67.4948 145.277 66.3253 145.277ZM66.3253 143.054C67.2344 143.054 67.9517 142.607 68.4773 141.712C69.0076 140.812 69.2727 139.489 69.2727 137.741C69.2727 136.586 69.152 135.616 68.9105 134.83C68.669 134.044 68.3281 133.452 67.8878 133.054C67.4474 132.652 66.9266 132.45 66.3253 132.45C65.4209 132.45 64.706 132.9 64.1804 133.8C63.6548 134.695 63.3897 136.009 63.3849 137.741C63.3802 138.902 63.4962 139.877 63.733 140.668C63.9744 141.458 64.3153 142.055 64.7557 142.457C65.196 142.855 65.7192 143.054 66.3253 143.054Z" fill="white"/>
<path d="M53.6193 103.199C52.9233 103.194 52.2438 103.073 51.581 102.837C50.9181 102.595 50.3215 102.205 49.7912 101.665C49.2609 101.12 48.8395 100.398 48.527 99.4986C48.2145 98.5942 48.0606 97.4744 48.0653 96.1392C48.0653 94.8939 48.1979 93.7836 48.4631 92.8082C48.7282 91.8329 49.1094 91.009 49.6065 90.3366C50.1037 89.6596 50.7027 89.1435 51.4034 88.7884C52.1089 88.4332 52.8973 88.2557 53.7685 88.2557C54.6823 88.2557 55.492 88.4356 56.1974 88.7955C56.9077 89.1553 57.4806 89.6477 57.9162 90.2727C58.3518 90.893 58.6217 91.5938 58.7259 92.375H56.1335C56.0009 91.8163 55.7287 91.3712 55.3168 91.0398C54.9096 90.7036 54.3935 90.5355 53.7685 90.5355C52.7599 90.5355 51.9834 90.9735 51.4389 91.8494C50.8991 92.7254 50.6269 93.928 50.6222 95.4574H50.7216C50.9536 95.0407 51.2543 94.6832 51.6236 94.3849C51.9929 94.0866 52.4096 93.857 52.8736 93.696C53.3423 93.5303 53.8371 93.4474 54.358 93.4474C55.2102 93.4474 55.9749 93.651 56.652 94.0582C57.3338 94.4654 57.8736 95.0265 58.2713 95.7415C58.669 96.4517 58.8655 97.2661 58.8608 98.1847C58.8655 99.1411 58.6477 100 58.2074 100.763C57.767 101.52 57.1539 102.117 56.3679 102.553C55.5819 102.988 54.6657 103.204 53.6193 103.199ZM53.6051 101.068C54.1212 101.068 54.5829 100.943 54.9901 100.692C55.3973 100.441 55.7192 100.102 55.956 99.6761C56.1927 99.25 56.3087 98.7718 56.304 98.2415C56.3087 97.7206 56.1951 97.2495 55.9631 96.8281C55.7358 96.4067 55.4209 96.0729 55.0185 95.8267C54.616 95.5805 54.1567 95.4574 53.6406 95.4574C53.2571 95.4574 52.8996 95.5308 52.5682 95.6776C52.2367 95.8243 51.9479 96.0279 51.7017 96.2884C51.4555 96.544 51.2614 96.8423 51.1193 97.1832C50.982 97.5194 50.911 97.8793 50.9062 98.2628C50.911 98.7694 51.0294 99.2358 51.2614 99.6619C51.4934 100.088 51.813 100.429 52.2202 100.685C52.6274 100.94 53.089 101.068 53.6051 101.068ZM66.6378 103.277C65.4683 103.277 64.4645 102.981 63.6264 102.389C62.7931 101.793 62.1515 100.933 61.7017 99.8111C61.2566 98.6842 61.0341 97.3277 61.0341 95.7415C61.0388 94.1553 61.2637 92.8059 61.7088 91.6932C62.1586 90.5758 62.8002 89.7235 63.6335 89.1364C64.4716 88.5492 65.473 88.2557 66.6378 88.2557C67.8026 88.2557 68.804 88.5492 69.642 89.1364C70.4801 89.7235 71.1217 90.5758 71.5668 91.6932C72.0166 92.8106 72.2415 94.16 72.2415 95.7415C72.2415 97.3324 72.0166 98.6913 71.5668 99.8182C71.1217 100.94 70.4801 101.797 69.642 102.389C68.8087 102.981 67.8073 103.277 66.6378 103.277ZM66.6378 101.054C67.5469 101.054 68.2642 100.607 68.7898 99.7116C69.3201 98.812 69.5852 97.4886 69.5852 95.7415C69.5852 94.5862 69.4645 93.6155 69.223 92.8295C68.9815 92.0436 68.6406 91.4517 68.2003 91.054C67.7599 90.6515 67.2391 90.4503 66.6378 90.4503C65.7334 90.4503 65.0185 90.9001 64.4929 91.7997C63.9673 92.6946 63.7022 94.0085 63.6974 95.7415C63.6927 96.9015 63.8087 97.8769 64.0455 98.6676C64.2869 99.4583 64.6278 100.055 65.0682 100.457C65.5085 100.855 66.0317 101.054 66.6378 101.054Z" fill="white"/>
<path d="M53.4631 61.1989C52.4072 61.1989 51.4697 61.0213 50.6506 60.6662C49.8362 60.3111 49.197 59.8258 48.733 59.2102C48.2737 58.59 48.0464 57.8868 48.0511 57.1009C48.0464 56.4901 48.179 55.929 48.4489 55.4176C48.7188 54.9062 49.0833 54.4801 49.5426 54.1392C50.0066 53.7936 50.5227 53.5734 51.0909 53.4787V53.3793C50.3428 53.2135 49.7367 52.8324 49.2727 52.2358C48.8134 51.6345 48.5862 50.9408 48.5909 50.1548C48.5862 49.4067 48.7945 48.7391 49.2159 48.152C49.6373 47.5649 50.215 47.1032 50.9489 46.767C51.6828 46.4261 52.5208 46.2557 53.4631 46.2557C54.3958 46.2557 55.2268 46.4261 55.956 46.767C56.6899 47.1032 57.2675 47.5649 57.6889 48.152C58.1151 48.7391 58.3281 49.4067 58.3281 50.1548C58.3281 50.9408 58.0938 51.6345 57.625 52.2358C57.161 52.8324 56.562 53.2135 55.8281 53.3793V53.4787C56.3963 53.5734 56.9077 53.7936 57.3622 54.1392C57.8215 54.4801 58.1861 54.9062 58.456 55.4176C58.7306 55.929 58.8679 56.4901 58.8679 57.1009C58.8679 57.8868 58.6359 58.59 58.1719 59.2102C57.7079 59.8258 57.0687 60.3111 56.2543 60.6662C55.4446 61.0213 54.5142 61.1989 53.4631 61.1989ZM53.4631 59.1676C54.0076 59.1676 54.4811 59.0753 54.8835 58.8906C55.286 58.7012 55.5985 58.4361 55.821 58.0952C56.0436 57.7543 56.1572 57.3613 56.1619 56.9162C56.1572 56.4522 56.0365 56.0426 55.7997 55.6875C55.5677 55.3277 55.2481 55.0459 54.8409 54.8423C54.4384 54.6387 53.9792 54.5369 53.4631 54.5369C52.9422 54.5369 52.4782 54.6387 52.071 54.8423C51.6638 55.0459 51.3419 55.3277 51.1051 55.6875C50.8731 56.0426 50.7595 56.4522 50.7642 56.9162C50.7595 57.3613 50.8684 57.7543 51.0909 58.0952C51.3134 58.4313 51.6259 58.6941 52.0284 58.8835C52.4356 59.0729 52.9138 59.1676 53.4631 59.1676ZM53.4631 52.5412C53.9081 52.5412 54.3011 52.4512 54.642 52.2713C54.9877 52.0914 55.2599 51.8404 55.4588 51.5185C55.6577 51.1965 55.7595 50.8248 55.7642 50.4034C55.7595 49.9867 55.66 49.6222 55.4659 49.3097C55.2718 48.9924 55.0019 48.7486 54.6562 48.5781C54.3106 48.4029 53.9129 48.3153 53.4631 48.3153C53.0038 48.3153 52.599 48.4029 52.2486 48.5781C51.9029 48.7486 51.633 48.9924 51.4389 49.3097C51.2495 49.6222 51.1572 49.9867 51.1619 50.4034C51.1572 50.8248 51.2519 51.1965 51.446 51.5185C51.6449 51.8357 51.9171 52.0866 52.2628 52.2713C52.6132 52.4512 53.0133 52.5412 53.4631 52.5412ZM66.5792 61.277C65.4097 61.277 64.4059 60.9811 63.5678 60.3892C62.7345 59.7926 62.0929 58.9332 61.6431 57.8111C61.198 56.6842 60.9755 55.3277 60.9755 53.7415C60.9802 52.1553 61.2051 50.8059 61.6502 49.6932C62.1 48.5758 62.7416 47.7235 63.5749 47.1364C64.413 46.5492 65.4144 46.2557 66.5792 46.2557C67.744 46.2557 68.7454 46.5492 69.5835 47.1364C70.4215 47.7235 71.0631 48.5758 71.5082 49.6932C71.958 50.8106 72.1829 52.16 72.1829 53.7415C72.1829 55.3324 71.958 56.6913 71.5082 57.8182C71.0631 58.9403 70.4215 59.7973 69.5835 60.3892C68.7501 60.9811 67.7487 61.277 66.5792 61.277ZM66.5792 59.054C67.4883 59.054 68.2056 58.6065 68.7312 57.7116C69.2615 56.812 69.5266 55.4886 69.5266 53.7415C69.5266 52.5862 69.4059 51.6155 69.1644 50.8295C68.9229 50.0436 68.582 49.4517 68.1417 49.054C67.7013 48.6515 67.1805 48.4503 66.5792 48.4503C65.6748 48.4503 64.9599 48.9001 64.4343 49.7997C63.9087 50.6946 63.6436 52.0085 63.6388 53.7415C63.6341 54.9015 63.7501 55.8769 63.9869 56.6676C64.2283 57.4583 64.5692 58.0549 65.0096 58.4574C65.4499 58.8551 65.9731 59.054 66.5792 59.054Z" fill="white"/>
<path d="M54.2088 4.45455V19H51.5739V7.01847H51.4886L48.0866 9.19176V6.77699L51.7017 4.45455H54.2088ZM63.2784 19.277C62.1089 19.277 61.1051 18.9811 60.267 18.3892C59.4337 17.7926 58.7921 16.9332 58.3423 15.8111C57.8973 14.6842 57.6747 13.3277 57.6747 11.7415C57.6795 10.1553 57.9044 8.80587 58.3494 7.69318C58.7992 6.57576 59.4408 5.72348 60.2741 5.13636C61.1122 4.54924 62.1136 4.25568 63.2784 4.25568C64.4432 4.25568 65.4446 4.54924 66.2827 5.13636C67.1207 5.72348 67.7623 6.57576 68.2074 7.69318C68.6572 8.81061 68.8821 10.16 68.8821 11.7415C68.8821 13.3324 68.6572 14.6913 68.2074 15.8182C67.7623 16.9403 67.1207 17.7973 66.2827 18.3892C65.4493 18.9811 64.4479 19.277 63.2784 19.277ZM63.2784 17.054C64.1875 17.054 64.9048 16.6065 65.4304 15.7116C65.9607 14.812 66.2259 13.4886 66.2259 11.7415C66.2259 10.5862 66.1051 9.61553 65.8636 8.82955C65.6222 8.04356 65.2813 7.4517 64.8409 7.05398C64.4006 6.65152 63.8797 6.45028 63.2784 6.45028C62.3741 6.45028 61.6591 6.90009 61.1335 7.79972C60.608 8.6946 60.3428 10.0085 60.3381 11.7415C60.3333 12.9015 60.4493 13.8769 60.6861 14.6676C60.9276 15.4583 61.2685 16.0549 61.7088 16.4574C62.1491 16.8551 62.6723 17.054 63.2784 17.054ZM76.6183 19.277C75.4487 19.277 74.445 18.9811 73.6069 18.3892C72.7736 17.7926 72.132 16.9332 71.6822 15.8111C71.2371 14.6842 71.0146 13.3277 71.0146 11.7415C71.0193 10.1553 71.2442 8.80587 71.6893 7.69318C72.1391 6.57576 72.7807 5.72348 73.614 5.13636C74.4521 4.54924 75.4535 4.25568 76.6183 4.25568C77.783 4.25568 78.7844 4.54924 79.6225 5.13636C80.4606 5.72348 81.1022 6.57576 81.5472 7.69318C81.997 8.81061 82.2219 10.16 82.2219 11.7415C82.2219 13.3324 81.997 14.6913 81.5472 15.8182C81.1022 16.9403 80.4606 17.7973 79.6225 18.3892C78.7892 18.9811 77.7878 19.277 76.6183 19.277ZM76.6183 17.054C77.5273 17.054 78.2447 16.6065 78.7702 15.7116C79.3005 14.812 79.5657 13.4886 79.5657 11.7415C79.5657 10.5862 79.445 9.61553 79.2035 8.82955C78.962 8.04356 78.6211 7.4517 78.1808 7.05398C77.7404 6.65152 77.2196 6.45028 76.6183 6.45028C75.7139 6.45028 74.9989 6.90009 74.4734 7.79972C73.9478 8.6946 73.6826 10.0085 73.6779 11.7415C73.6732 12.9015 73.7892 13.8769 74.0259 14.6676C74.2674 15.4583 74.6083 16.0549 75.0487 16.4574C75.489 16.8551 76.0122 17.054 76.6183 17.054Z" fill="white"/>
</svg>
