<svg width="24" height="25" viewBox="0 0 24 25" fill="none" xmlns="http://www.w3.org/2000/svg">
<path d="M0.0625 24.5518V0.676758H23.9375V24.5518H0.0625Z" stroke="#374151" stroke-width="0.125"/>
<path d="M20.25 20.8641V11.4459C20.25 11.3414 20.2282 11.238 20.1859 11.1425C20.1436 11.0469 20.0818 10.9612 20.0045 10.8909L12.504 4.07201C12.3659 3.94649 12.186 3.87695 11.9995 3.87695C11.8129 3.87696 11.633 3.94652 11.4949 4.07204L3.99545 10.8909C3.91814 10.9612 3.85637 11.0469 3.8141 11.1425C3.77183 11.238 3.75 11.3413 3.75 11.4458V20.8641" stroke="#C445F0" stroke-width="2" stroke-linecap="round" stroke-linejoin="round"/>
<path d="M1.5 20.8643H22.5" stroke="#C445F0" stroke-width="2" stroke-linecap="round" stroke-linejoin="round"/>
<path d="M14.2495 20.8633V14.8633H9.74951V20.8633" stroke="#C445F0" stroke-width="2" stroke-linecap="round" stroke-linejoin="round"/>
</svg>
