<svg width="164" height="26" viewBox="0 0 164 26" fill="none" xmlns="http://www.w3.org/2000/svg">
<path d="M153.169 8.08645V6.77246H161.267V8.08645H153.169ZM153.169 13.211V11.8806H161.267V13.211H153.169ZM153.169 18.3027V16.9887H161.267V18.3027H153.169Z" fill="url(#paint0_linear_36_13116)"/>
<path d="M145.363 18.3028L136.231 8.57929V6.69043L144.049 15.0014V6.78898H145.363V18.3028Z" fill="url(#paint1_linear_36_13116)"/>
<path d="M123.388 6.69043L128.759 18.3028H127.297L123.388 9.82758L119.496 18.3028H118.05L123.388 6.69043Z" fill="url(#paint2_linear_36_13116)"/>
<path d="M110.901 18.3026H109.094L103.937 12.9152H106.4C106.729 12.9152 107.041 12.855 107.337 12.7346C107.632 12.6032 107.884 12.4334 108.092 12.2254C108.311 12.0064 108.481 11.7545 108.601 11.4698C108.733 11.1742 108.798 10.8621 108.798 10.5336C108.798 10.1942 108.733 9.8821 108.601 9.5974C108.481 9.30176 108.311 9.04443 108.092 8.82544C107.884 8.60644 107.632 8.43671 107.337 8.31626C107.041 8.18487 106.729 8.11917 106.4 8.11917H101.818V6.80518H106.4C106.915 6.80518 107.397 6.90373 107.846 7.10082C108.295 7.29792 108.689 7.5662 109.028 7.90564C109.368 8.23414 109.631 8.62834 109.817 9.08823C110.014 9.53718 110.112 10.019 110.112 10.5336C110.112 10.9935 110.03 11.4315 109.866 11.8476C109.713 12.2637 109.494 12.636 109.209 12.9645C108.924 13.293 108.585 13.5667 108.191 13.7857C107.807 13.9938 107.391 14.1307 106.942 14.1964L110.901 18.3026Z" fill="url(#paint3_linear_36_13116)"/>
<path d="M93.405 12.5542C93.7882 12.8389 94.0948 13.2057 94.3248 13.6547C94.5547 14.0927 94.6697 14.5745 94.6697 15.1C94.6697 15.538 94.5821 15.9541 94.4069 16.3483C94.2426 16.7316 94.0127 17.071 93.717 17.3667C93.4324 17.6514 93.0929 17.8813 92.6987 18.0565C92.3155 18.2208 91.8994 18.3029 91.4504 18.3029H85.9809V16.9889H91.4504C91.7132 16.9889 91.9596 16.9396 92.1895 16.8411C92.4195 16.7425 92.6221 16.6057 92.7973 16.4305C92.9725 16.2553 93.1093 16.0582 93.2079 15.8392C93.3064 15.6092 93.3557 15.3628 93.3557 15.1C93.3557 14.8372 93.3064 14.5909 93.2079 14.3609C93.1093 14.131 92.9725 13.9339 92.7973 13.7696C92.6221 13.5944 92.4195 13.4576 92.1895 13.359C91.9596 13.2605 91.7132 13.2112 91.4504 13.2112V11.8808C91.7132 11.8808 91.9596 11.8315 92.1895 11.7329C92.4195 11.6344 92.6221 11.503 92.7973 11.3388C92.9725 11.1636 93.1093 10.9665 93.2079 10.7475C93.3064 10.5175 93.3557 10.2711 93.3557 10.0083C93.3557 9.74554 93.3064 9.49917 93.2079 9.26922C93.1093 9.03927 92.9725 8.8367 92.7973 8.6615C92.6221 8.4863 92.4195 8.34943 92.1895 8.25088C91.9596 8.15233 91.7132 8.10305 91.4504 8.10305H87.18V10.5011H85.866V6.78906H91.4504C91.8994 6.78906 92.3155 6.87666 92.6987 7.05186C93.0929 7.21611 93.4324 7.44606 93.717 7.74171C94.0127 8.0264 94.2426 8.36585 94.4069 8.76005C94.5821 9.14329 94.6697 9.55939 94.6697 10.0083C94.6697 10.5339 94.5547 11.0157 94.3248 11.4537C94.0948 11.8917 93.7882 12.2585 93.405 12.5542Z" fill="url(#paint4_linear_36_13116)"/>
<path d="M76.7485 10.0737L72.3795 14.7055L66.7622 8.66114V6.75586L72.3959 12.7674L78.0625 6.75586V18.3025H76.7485V10.0737Z" fill="url(#paint5_linear_36_13116)"/>
<path d="M50.8667 8.08645V6.77246H58.9642V8.08645H50.8667ZM50.8667 13.211V11.8806H58.9642V13.211H50.8667ZM50.8667 18.3027V16.9887H58.9642V18.3027H50.8667Z" fill="url(#paint6_linear_36_13116)"/>
<path d="M41.7495 10.0737L37.3805 14.7055L33.0772 10.0737V18.3025H31.7632V6.75586L37.3969 12.7674L43.0635 6.75586V18.3025H41.7495V10.0737Z" fill="url(#paint7_linear_36_13116)"/>
<path fill-rule="evenodd" clip-rule="evenodd" d="M13.3465 0.720703L23.9596 6.69032V18.6306L13.3465 24.6002L2.7334 18.6306V6.69032L13.3465 0.720703ZM3.74417 7.25987V18.061L13.3465 23.4621L22.9488 18.061V7.25987L13.3465 1.85878L3.74417 7.25987Z" fill="url(#paint8_linear_36_13116)"/>
<mask id="mask0_36_13116" style="mask-type:alpha" maskUnits="userSpaceOnUse" x="3" y="1" width="21" height="24">
<path d="M13.3463 1.26318L23.4539 6.95518V18.3392L13.3463 24.0312L3.23877 18.3392V6.95518L13.3463 1.26318Z" fill="white"/>
</mask>
<g mask="url(#mask0_36_13116)">
<path fill-rule="evenodd" clip-rule="evenodd" d="M9.0008 1.68264C10.0846 2.54238 10.4894 2.94355 11.5733 4.23511L10.9839 5.76821C10.783 5.93507 10.5039 6.16295 10.2425 6.36816C10.0947 6.4842 9.95481 6.59124 9.83898 6.67534C9.82423 6.68605 9.81021 6.69614 9.79691 6.70562L8.42828 5.74538L7.21711 3.10612L9.0008 1.68264ZM6.59367 2.64827L8.86408 0.836361H8.96159C8.9805 0.831434 9.00725 0.824004 9.04252 0.813777C9.1222 0.790674 9.23243 0.757097 9.36651 0.715728C9.44107 0.692724 9.52263 0.667427 9.60948 0.640491C9.83232 0.571376 10.0899 0.491471 10.3534 0.411827C10.7194 0.301137 11.1028 0.189066 11.4296 0.104374C11.5928 0.0620708 11.7457 0.0256023 11.8774 -0.000543319C12.0019 -0.0252805 12.1317 -0.0458888 12.2381 -0.0458984C12.3895 -0.0459122 12.5349 0.00828341 12.6456 0.059548C12.7653 0.115021 12.891 0.189622 13.0145 0.271337C13.262 0.435156 13.5319 0.648574 13.777 0.855102C14.0237 1.06292 14.2527 1.26994 14.4195 1.42452C14.4393 1.4429 14.4583 1.46056 14.4763 1.47741L15.4788 0.857358L17.3535 0.485441L19.7444 1.07622L21.4031 3.00521L21.6478 4.2226L23.3408 5.73399L23.3591 5.75639C24.0489 6.59734 24.8325 8.22505 25.1336 8.9165L25.1977 9.06388L24.2323 11.1966L25.8117 13.1224L25.6306 17.0097V18.5139L23.9759 19.8373L21.7553 20.5124L21.7472 20.521C21.6975 20.5734 21.6251 20.6496 21.5348 20.745C21.354 20.9358 21.101 21.2031 20.8121 21.5093C20.234 22.1219 19.5129 22.8892 18.9388 23.5101L18.8614 23.5938L18.7493 23.6212C18.6803 23.638 18.6065 23.6402 18.557 23.6405C18.4987 23.6409 18.4317 23.6384 18.3601 23.634C18.2166 23.6253 18.0368 23.6081 17.8373 23.5858C17.4373 23.5411 16.9401 23.4737 16.4573 23.4042C15.9739 23.3345 15.5018 23.2622 15.1507 23.2074C15.0515 23.1919 14.9618 23.1778 14.8843 23.1655C14.8751 23.1907 14.8655 23.2166 14.8557 23.2431C14.7861 23.4295 14.6875 23.6832 14.6097 23.816C14.5667 23.8893 14.5006 23.945 14.4758 23.966L14.4742 23.9673C14.4354 24.0001 14.3884 24.0358 14.3377 24.0724C14.2355 24.1462 14.1003 24.2368 13.9452 24.3365C13.634 24.5366 13.2283 24.7826 12.8138 25.0216C12.3997 25.2603 11.9718 25.4949 11.6169 25.671C11.4401 25.7587 11.2758 25.8347 11.1377 25.8896C11.0688 25.917 11.0011 25.9413 10.9384 25.9593C10.8821 25.9754 10.8031 25.9944 10.7209 25.9944C10.5893 25.9944 10.4371 25.9451 10.3214 25.9031C10.187 25.8542 10.0284 25.7864 9.85809 25.7071C9.51658 25.5482 9.10804 25.3337 8.71526 25.1068C8.3237 24.8806 7.93804 24.6363 7.64605 24.4167C7.50128 24.3078 7.3688 24.1971 7.26882 24.0913C7.21899 24.0385 7.16888 23.9784 7.12928 23.9127C7.09279 23.8522 7.04473 23.7538 7.04473 23.6325V23.0648C6.99749 23.0158 6.93542 22.952 6.86112 22.8761C6.70445 22.7159 6.49544 22.504 6.26104 22.267C5.67238 21.6719 4.92583 20.9218 4.45199 20.4466L4.3675 20.3619L4.24096 19.5596C4.18113 19.5116 4.10019 19.4464 4.00477 19.369C3.79587 19.1997 3.51681 18.9714 3.23732 18.7364C2.95879 18.5023 2.67581 18.2582 2.46086 18.0582C2.35426 17.959 2.2582 17.865 2.18654 17.7854C2.1514 17.7464 2.11495 17.703 2.08511 17.6592C2.07024 17.6373 2.05192 17.608 2.03616 17.5735C2.02289 17.5445 1.99696 17.4813 1.99696 17.3998V16.9426C1.981 16.9234 1.96416 16.9027 1.94666 16.8809C1.87979 16.7976 1.79621 16.6888 1.70272 16.5641C1.51534 16.3142 1.28242 15.9928 1.05283 15.6667C0.823413 15.3409 0.595319 15.0077 0.418194 14.7346C0.329848 14.5984 0.252189 14.4741 0.192844 14.3716C0.142136 14.2841 0.0806479 14.1728 0.0552276 14.0813C0.0348975 14.0081 0.0217636 13.9028 0.0117049 13.8034C0.000633303 13.6939 -0.00962238 13.5586 -0.0186866 13.4077C-0.0368401 13.1056 -0.0507628 12.7319 -0.0563761 12.3607C-0.0619765 11.9904 -0.0593974 11.6168 -0.0437844 11.3164C-0.0360171 11.167 -0.0246958 11.0288 -0.00817076 10.9155C5.6982e-05 10.859 0.0104876 10.8022 0.024438 10.7501C0.0362338 10.7061 0.0588656 10.6319 0.105986 10.5631C0.164066 10.4784 0.264621 10.3946 0.336912 10.3365C0.424777 10.2658 0.535769 10.1834 0.65862 10.0955C0.905063 9.91937 1.21416 9.71091 1.51452 9.5126C1.81555 9.31385 2.1107 9.12338 2.33039 8.98273C2.40345 8.93596 2.46822 8.89466 2.52217 8.86034V8.15031C2.52217 8.05091 2.55877 7.97309 2.5786 7.93551C2.60205 7.89106 2.63025 7.85152 2.65536 7.81952C2.70589 7.7551 2.77011 7.68836 2.83532 7.62548C2.96749 7.49803 3.13797 7.35387 3.30112 7.22186C3.4658 7.08861 3.62971 6.96236 3.75197 6.86976C3.77687 6.8509 3.80009 6.8334 3.8213 6.81747L4.01945 4.49822L4.07106 4.42042L4.38929 4.62127C4.07106 4.42042 4.07099 4.42053 4.07106 4.42042L4.07173 4.41941L4.07276 4.41788L4.07589 4.41324C4.07844 4.40946 4.08195 4.40432 4.08639 4.39792C4.09526 4.38511 4.10787 4.3672 4.12409 4.34487C4.1565 4.30023 4.20347 4.23775 4.26397 4.1629C4.38463 4.01363 4.56099 3.8129 4.78511 3.6058C5.20564 3.2172 5.82841 2.77468 6.59367 2.64827ZM4.75859 4.7506L4.60747 6.5194L7.59618 5.74202L6.52996 3.4186C6.05619 3.54559 5.63588 3.8382 5.30647 4.14259C5.1148 4.3197 4.96291 4.49251 4.85927 4.62072C4.81731 4.67263 4.78356 4.71685 4.75859 4.7506ZM8.04835 6.38967L4.35461 7.35043C4.3206 7.37571 4.27326 7.4111 4.21692 7.45378C4.09845 7.54351 3.94141 7.66451 3.78513 7.79096C3.62732 7.91865 3.47684 8.04664 3.36829 8.15131C3.33009 8.18815 3.30103 8.21834 3.28024 8.24174V8.86316L6.74604 11.1168C6.78755 11.0912 6.83278 11.0639 6.88071 11.0357C7.05111 10.9351 7.26723 10.8141 7.49675 10.6887C7.90442 10.4659 8.36246 10.2247 8.69955 10.0499L9.37906 8.40522C9.35929 8.33472 9.34921 8.2665 9.34305 8.21052C9.32916 8.0844 9.32858 7.94548 9.33408 7.81305C9.34105 7.64505 9.35854 7.4721 9.37833 7.32278L8.04835 6.38967ZM10.1355 7.37804C10.116 7.51739 10.0981 7.68491 10.0915 7.84297C10.0873 7.94458 10.0882 8.03463 10.0944 8.10692L13.2305 8.97087V7.24972L11.3665 6.42123C11.1759 6.57836 10.9411 6.76888 10.7179 6.94418C10.5666 7.06294 10.4184 7.17647 10.2916 7.26847C10.2398 7.30612 10.1867 7.34379 10.1355 7.37804ZM11.7836 5.79403L13.649 6.62317L16.1772 6.04555L14.0678 3.47367L12.3106 4.42328L11.7836 5.79403ZM12.0979 3.69291L13.8349 2.7542L14.0072 2.06316C13.9748 2.0327 13.938 1.99824 13.8973 1.96059C13.7359 1.811 13.5163 1.61245 13.2815 1.41471C13.0453 1.21568 12.8009 1.02354 12.5888 0.883194C12.4825 0.812828 12.3921 0.760697 12.3204 0.727462C12.2619 0.700393 12.2345 0.694727 12.2314 0.693665C12.2024 0.694746 12.1376 0.702376 12.0286 0.724018C11.9173 0.746127 11.7802 0.778589 11.6243 0.819C11.3128 0.899736 10.9412 1.00823 10.5778 1.1181C10.3172 1.19689 10.064 1.27543 9.84193 1.3443C9.82502 1.34955 9.80829 1.35474 9.79175 1.35987C10.6819 2.08359 11.136 2.54983 12.0979 3.69291ZM14.7586 2.17837L14.5762 2.90993L17.0923 5.97759L17.7808 6.31338L19.2918 5.00791C18.3701 4.28616 17.4448 3.4601 16.7251 2.78973C16.3176 2.41012 15.9743 2.07885 15.7327 1.84232C15.6703 1.78122 15.6146 1.72642 15.5664 1.67873L14.7586 2.17837ZM16.3843 1.43228C16.6115 1.65331 16.9072 1.93694 17.2487 2.25497C18.0102 2.96428 18.993 3.83905 19.9475 4.57175L20.8763 4.22751L20.6967 3.33441L19.3209 1.73436L17.3351 1.24367L16.3843 1.43228ZM21.258 4.87702L20.0822 5.31284L18.2164 6.92477L18.112 9.62379L20.7295 10.7821C21.3494 9.78038 21.8266 8.62315 22.1571 7.67868C22.3367 7.16575 22.4713 6.72024 22.5609 6.40349C22.5936 6.28795 22.6203 6.18966 22.6409 6.1116L21.258 4.87702ZM23.2168 6.85844C23.6698 7.58116 24.1207 8.50153 24.3711 9.05933L23.5133 10.9543L21.6631 11.5636L21.3469 11.215C22.0232 10.1352 22.5312 8.89876 22.8746 7.91756C23.0154 7.51525 23.1294 7.1531 23.2168 6.85844ZM20.6445 11.5565L17.7655 10.2824L15.8211 11.63L15.274 13.0753C15.2948 13.0863 15.3166 13.0979 15.3394 13.11C15.5619 13.2277 15.8813 13.3932 16.2677 13.5834C17.026 13.9567 18.0372 14.4227 19.0771 14.8102H20.1239L21.1669 13.9547V12.1325L20.6445 11.5565ZM21.9249 12.2578V13.9485L24.9066 16.2614L25.0415 13.3669L23.6624 11.6856L21.9249 12.2578ZM24.8725 17.1797L21.5526 14.6045L20.6455 15.3485C20.6464 15.4018 20.6471 15.466 20.6474 15.5401C20.6483 15.775 20.6445 16.1093 20.6259 16.5094C20.5921 17.2376 20.5089 18.1908 20.3128 19.1621L21.5803 19.7911L23.6094 19.1743L24.8725 18.164V17.1797ZM20.9273 20.2967L19.8491 19.7616L19.1645 19.9725C19.2061 21.0944 19.1625 21.6051 19.1103 22.217C19.11 22.2202 19.1097 22.2234 19.1094 22.2266C19.501 21.8079 19.9042 21.3795 20.2543 21.0085C20.5176 20.7295 20.751 20.4828 20.9273 20.2967ZM18.2983 22.8882C18.3169 22.5882 18.3377 22.3468 18.3568 22.1239C18.4073 21.5365 18.4467 21.078 18.4076 20.0158L16.9268 19.7532C16.8917 19.7752 16.8498 19.8014 16.8022 19.8313C16.6467 19.9291 16.4298 20.0662 16.185 20.2236C15.7589 20.4976 15.2527 20.8299 14.8369 21.1226C14.8818 21.4247 14.9205 21.773 14.9494 22.0635C14.9632 22.2014 14.9749 22.3278 14.9842 22.4322C15.066 22.4452 15.1625 22.4604 15.2706 22.4773C15.6198 22.5318 16.0887 22.6036 16.5681 22.6727C17.0483 22.7419 17.5358 22.8079 17.9236 22.8512C18.0656 22.8671 18.1919 22.8796 18.2983 22.8882ZM14.2468 22.7036C14.2455 22.688 14.244 22.6701 14.2423 22.6502C14.2409 22.6327 14.2392 22.6137 14.2375 22.5932C14.2275 22.4774 14.213 22.3163 14.1949 22.1351C14.1643 21.8286 14.1243 21.4723 14.0794 21.1809C13.4747 20.807 12.7604 20.3443 12.1832 19.9656C11.8706 19.7605 11.5974 19.5795 11.4023 19.4498C11.3904 19.4419 11.3788 19.4342 11.3675 19.4266C10.7552 20.1044 9.93175 21.0024 9.21876 21.7511C8.81778 22.1721 8.44793 22.55 8.16902 22.8155C8.03106 22.9468 7.90743 23.0582 7.80992 23.1344C7.80758 23.1362 7.80521 23.1381 7.80281 23.1399V23.5641C7.80893 23.5713 7.81663 23.58 7.82621 23.5901C7.88435 23.6516 7.97872 23.7332 8.10892 23.8311C8.36685 24.0251 8.72352 24.2522 9.10161 24.4706C9.47848 24.6884 9.86691 24.8919 10.1846 25.0398C10.3439 25.114 10.4804 25.1718 10.5861 25.2102C10.6585 25.2365 10.6999 25.2474 10.7174 25.2519C10.7197 25.2513 10.7222 25.2506 10.7249 25.2498C10.7543 25.2414 10.7961 25.227 10.8514 25.2049C10.9618 25.1611 11.105 25.0954 11.2732 25.0119C11.6085 24.8456 12.0214 24.6195 12.428 24.3851C12.8342 24.1509 13.2292 23.9113 13.528 23.7192C13.678 23.6228 13.8002 23.5406 13.8864 23.4783C13.9236 23.4514 13.9509 23.4305 13.9695 23.4154C14.0113 23.3311 14.0773 23.1672 14.1432 22.9904C14.1788 22.8951 14.2108 22.8056 14.2341 22.7398C14.2387 22.7267 14.2429 22.7146 14.2468 22.7036ZM13.9928 23.395C13.993 23.3949 13.9917 23.3963 13.9885 23.3992C13.9911 23.3965 13.9926 23.3951 13.9928 23.395ZM7.78271 23.5378C7.78139 23.5356 7.7818 23.5359 7.78321 23.5386C7.78301 23.5383 7.78285 23.538 7.78271 23.5378ZM10.8819 18.8456L10.4743 17.4939L5.01416 19.5989L5.07992 20.0158C5.55506 20.4925 6.25084 21.1918 6.80657 21.7536C7.07084 22.0207 7.31033 22.2636 7.47831 22.436C7.52543 22.3936 7.57926 22.3437 7.63958 22.2863C7.90472 22.0339 8.26433 21.6668 8.66332 21.2479C9.40311 20.471 10.2652 19.5295 10.8819 18.8456ZM4.66175 18.9397L9.90709 16.9175C9.9001 16.913 9.89306 16.9084 9.88598 16.9038C9.50896 16.6585 9.00302 16.328 8.48777 15.9876C7.97288 15.6475 7.44717 15.2964 7.03118 15.0102C6.82342 14.8673 6.64092 14.7391 6.50003 14.6359C6.47056 14.6143 6.44117 14.5925 6.41259 14.571C6.32578 14.622 6.2188 14.6881 6.09393 14.7676C5.82205 14.9407 5.4762 15.1705 5.08928 15.4305C4.861 15.584 4.61859 15.7478 4.36964 15.9161C3.83649 16.2765 3.27338 16.6572 2.75504 16.9988V17.2962C2.75537 17.2966 2.7557 17.297 2.75603 17.2974C2.80565 17.3524 2.88283 17.4289 2.98412 17.5232C3.18496 17.71 3.45636 17.9444 3.73222 18.1763C4.0071 18.4074 4.28243 18.6327 4.48932 18.8004C4.55434 18.8531 4.61254 18.9001 4.66175 18.9397ZM2.45073 16.3068C2.93029 15.9894 3.44197 15.6435 3.93225 15.3121C4.1825 15.143 4.42717 14.9776 4.65915 14.8217C5.04657 14.5613 5.3991 14.327 5.6795 14.1484C5.81955 14.0592 5.94435 13.9822 6.04804 13.9221C6.06755 13.9108 6.08716 13.8995 6.1067 13.8886L6.3505 11.7483L2.89861 9.50367C2.85359 9.53235 2.80245 9.56499 2.74637 9.60089C2.52847 9.74039 2.23652 9.9288 1.93947 10.1249C1.64174 10.3215 1.34179 10.5239 1.10674 10.6919C0.98885 10.7762 0.890991 10.8492 0.819216 10.9069C0.787262 10.9326 0.765675 10.9513 0.751842 10.9636C0.748946 10.978 0.745716 10.9965 0.742361 11.0196C0.730462 11.1012 0.720579 11.2143 0.713322 11.3539C0.698887 11.6316 0.696139 11.9873 0.701621 12.3498C0.707089 12.7115 0.720658 13.0742 0.738094 13.3644C0.746825 13.5097 0.756388 13.6345 0.766121 13.7308C0.770995 13.7789 0.775697 13.8178 0.78003 13.8473C0.783062 13.8679 0.785324 13.8798 0.786384 13.8851C0.786738 13.8854 0.787946 13.8878 0.790322 13.8926C0.79752 13.9072 0.815442 13.9433 0.852832 14.0078C0.903364 14.0951 0.973555 14.2078 1.05884 14.3392C1.22896 14.6016 1.45123 14.9264 1.67772 15.2481C1.90403 15.5695 2.13256 15.8848 2.31462 16.1276C2.36413 16.1937 2.40979 16.2538 2.45073 16.3068ZM0.760711 10.9278C0.760735 10.9279 0.760369 10.9291 0.759536 10.9312C0.760272 10.9288 0.760688 10.9277 0.760711 10.9278ZM7.11113 11.7669L6.85977 13.9735C6.8878 13.9948 6.91972 14.0185 6.95545 14.0447C7.08742 14.1415 7.26281 14.2648 7.4681 14.406C7.87821 14.6881 8.39926 15.0361 8.91289 15.3754C9.42616 15.7145 9.93052 16.0439 10.3067 16.2887C10.4495 16.3816 10.5737 16.4623 10.673 16.5266C10.8026 16.3962 10.9876 16.2033 11.215 15.9479C11.6405 15.4698 12.2143 14.7731 12.8511 13.8578C11.7489 13.122 10.7616 12.3416 10.0319 11.7282C9.63207 11.3921 9.3085 11.1052 9.08445 10.9019C9.02828 10.851 8.97835 10.8053 8.93503 10.7653C8.61764 10.9307 8.22235 11.1398 7.86727 11.3338C7.64064 11.4576 7.43296 11.574 7.27317 11.6683C7.20937 11.7059 7.15503 11.739 7.11113 11.7669ZM9.44673 10.2196C9.49065 10.2602 9.54214 10.3073 9.60074 10.3605C9.81883 10.5583 10.1352 10.8389 10.5268 11.1681C11.2798 11.8011 12.3068 12.6105 13.4442 13.3568C13.6282 13.3149 13.8302 13.2839 13.9924 13.2625C14.0978 13.2485 14.1922 13.2379 14.2627 13.2305L14.4818 13.0332L15.0685 11.4833L13.407 9.78784L10.0116 8.85246L9.44673 10.2196ZM13.9885 9.31118L15.5537 10.9082L17.3519 9.66199L17.4556 6.9815L16.8013 6.6624L13.9885 7.30503V9.31118ZM15.0508 13.7984C15.1291 13.9151 15.2213 14.0583 15.328 14.2327C15.6842 14.815 16.2037 15.749 16.9073 17.2129C17.4686 16.4035 17.7516 16.0822 18.0503 15.7431C18.1585 15.6202 18.2688 15.495 18.3952 15.3433C17.4716 14.9799 16.5982 14.5743 15.9262 14.2435C15.5723 14.0693 15.2732 13.9153 15.0508 13.7984ZM19.195 15.5496C18.9387 15.8738 18.761 16.0744 18.5951 16.2615C18.2659 16.633 17.9836 16.9515 17.2273 18.079V19.055L18.7494 19.3249L19.5574 19.076C19.7519 18.134 19.8351 17.1969 19.8686 16.4759C19.8864 16.0936 19.8901 15.7741 19.8894 15.5496H19.195ZM16.4692 19.1611V18.0496C15.6448 16.2946 15.0567 15.2323 14.677 14.6116C14.4847 14.2971 14.3466 14.0971 14.2591 13.9786C14.2583 13.9775 14.2575 13.9763 14.2566 13.9752C14.2079 13.9808 14.1529 13.9875 14.0942 13.9952C13.9323 14.0166 13.7569 14.0446 13.613 14.0776C12.9045 15.1157 12.2609 15.9007 11.7874 16.4326C11.5418 16.7086 11.3418 16.9165 11.2022 17.0564C11.1832 17.0754 11.1654 17.0932 11.1487 17.1097L11.63 18.7061C11.6811 18.7401 11.7484 18.785 11.8293 18.8388C12.0234 18.9679 12.2953 19.148 12.6063 19.352C13.1587 19.7144 13.8318 20.1506 14.4111 20.5104C14.8378 20.2108 15.3463 19.8772 15.7678 19.6062C16.0153 19.4471 16.2345 19.3085 16.3917 19.2097C16.4196 19.1922 16.4455 19.176 16.4692 19.1611Z" fill="url(#paint9_linear_36_13116)"/>
</g>
<defs>
<linearGradient id="paint0_linear_36_13116" x1="96.5129" y1="3.16104" x2="96.5129" y2="21.639" gradientUnits="userSpaceOnUse">
<stop stop-color="#00A3F9"/>
<stop offset="1" stop-color="#00F1EF"/>
</linearGradient>
<linearGradient id="paint1_linear_36_13116" x1="96.513" y1="3.16114" x2="96.513" y2="21.6391" gradientUnits="userSpaceOnUse">
<stop stop-color="#00A3F9"/>
<stop offset="1" stop-color="#00F1EF"/>
</linearGradient>
<linearGradient id="paint2_linear_36_13116" x1="96.5132" y1="3.16114" x2="96.5132" y2="21.6391" gradientUnits="userSpaceOnUse">
<stop stop-color="#00A3F9"/>
<stop offset="1" stop-color="#00F1EF"/>
</linearGradient>
<linearGradient id="paint3_linear_36_13116" x1="96.5131" y1="3.16091" x2="96.5131" y2="21.6389" gradientUnits="userSpaceOnUse">
<stop stop-color="#00A3F9"/>
<stop offset="1" stop-color="#00F1EF"/>
</linearGradient>
<linearGradient id="paint4_linear_36_13116" x1="96.5133" y1="3.16122" x2="96.5133" y2="21.6392" gradientUnits="userSpaceOnUse">
<stop stop-color="#00A3F9"/>
<stop offset="1" stop-color="#00F1EF"/>
</linearGradient>
<linearGradient id="paint5_linear_36_13116" x1="96.513" y1="3.16087" x2="96.513" y2="21.6388" gradientUnits="userSpaceOnUse">
<stop stop-color="#00A3F9"/>
<stop offset="1" stop-color="#00F1EF"/>
</linearGradient>
<linearGradient id="paint6_linear_36_13116" x1="96.5131" y1="3.16104" x2="96.5131" y2="21.639" gradientUnits="userSpaceOnUse">
<stop stop-color="#00A3F9"/>
<stop offset="1" stop-color="#00F1EF"/>
</linearGradient>
<linearGradient id="paint7_linear_36_13116" x1="96.5131" y1="3.16087" x2="96.5131" y2="21.6388" gradientUnits="userSpaceOnUse">
<stop stop-color="#00A3F9"/>
<stop offset="1" stop-color="#00F1EF"/>
</linearGradient>
<linearGradient id="paint8_linear_36_13116" x1="13.3465" y1="0.720703" x2="13.3465" y2="24.6002" gradientUnits="userSpaceOnUse">
<stop stop-color="#00A3F9"/>
<stop offset="1" stop-color="#00F1EF"/>
</linearGradient>
<linearGradient id="paint9_linear_36_13116" x1="12.8763" y1="-0.0458984" x2="12.8763" y2="25.9944" gradientUnits="userSpaceOnUse">
<stop stop-color="#00A3F9"/>
<stop offset="1" stop-color="#00F1EF"/>
</linearGradient>
</defs>
</svg>
