<svg width="22" height="25" viewBox="0 0 22 25" fill="none" xmlns="http://www.w3.org/2000/svg">
<path fill-rule="evenodd" clip-rule="evenodd" d="M11.3465 0.72052L21.9596 6.69014V18.6304L11.3465 24.6L0.733337 18.6304V6.69014L11.3465 0.72052ZM1.74411 7.25969V18.0608L11.3465 23.4619L20.9488 18.0608V7.25969L11.3465 1.8586L1.74411 7.25969Z" fill="url(#paint0_linear_143_423)"/>
<mask id="mask0_143_423" style="mask-type:alpha" maskUnits="userSpaceOnUse" x="1" y="1" width="21" height="24">
<path d="M11.3463 1.26294L21.4539 6.95493V18.3389L11.3463 24.0309L1.23877 18.3389V6.95493L11.3463 1.26294Z" fill="white"/>
</mask>
<g mask="url(#mask0_143_423)">
<path fill-rule="evenodd" clip-rule="evenodd" d="M7.0008 1.68258C8.08462 2.54231 8.48944 2.94349 9.57332 4.23505L8.9839 5.76815C8.78302 5.93501 8.50391 6.16289 8.24252 6.3681C8.09472 6.48414 7.95481 6.59118 7.83898 6.67528C7.82423 6.68599 7.81021 6.69607 7.79691 6.70555L6.42828 5.74532L5.21711 3.10606L7.0008 1.68258ZM4.59367 2.64821L6.86408 0.8363H6.96159C6.9805 0.831373 7.00725 0.823943 7.04252 0.813716C7.1222 0.790613 7.23243 0.757036 7.36651 0.715667C7.44107 0.692663 7.52263 0.667366 7.60948 0.64043C7.83232 0.571315 8.08995 0.49141 8.35336 0.411766C8.71944 0.301076 9.10284 0.189004 9.4296 0.104313C9.59282 0.0620098 9.74571 0.0255412 9.87737 -0.000604354C10.0019 -0.0253416 10.1317 -0.0459498 10.2381 -0.0459595C10.3895 -0.0459732 10.5349 0.00822238 10.6456 0.059487C10.7653 0.11496 10.891 0.189561 11.0145 0.271276C11.262 0.435095 11.5319 0.648513 11.777 0.855041C12.0237 1.06286 12.2527 1.26988 12.4195 1.42446C12.4393 1.44284 12.4583 1.4605 12.4763 1.47735L13.4788 0.857297L15.3535 0.48538L17.7444 1.07616L19.4031 3.00515L19.6478 4.22254L21.3408 5.73393L21.3591 5.75633C22.0489 6.59728 22.8325 8.22499 23.1336 8.91644L23.1977 9.06382L22.2323 11.1966L23.8117 13.1223L23.6306 17.0097V18.5139L21.9759 19.8373L19.7553 20.5124L19.7472 20.5209C19.6975 20.5733 19.6251 20.6496 19.5348 20.7449C19.354 20.9357 19.101 21.203 18.8121 21.5092C18.234 22.1218 17.5129 22.8891 16.9388 23.5101L16.8614 23.5938L16.7493 23.6211C16.6803 23.6379 16.6065 23.6402 16.557 23.6405C16.4987 23.6409 16.4317 23.6383 16.3601 23.634C16.2166 23.6252 16.0368 23.6081 15.8373 23.5858C15.4373 23.5411 14.9401 23.4737 14.4573 23.4041C13.9739 23.3345 13.5018 23.2622 13.1507 23.2073C13.0515 23.1918 12.9618 23.1777 12.8843 23.1654C12.8751 23.1906 12.8655 23.2166 12.8557 23.243C12.7861 23.4295 12.6875 23.6832 12.6097 23.8159C12.5667 23.8893 12.5006 23.945 12.4758 23.966L12.4742 23.9673C12.4354 24 12.3884 24.0357 12.3377 24.0723C12.2355 24.1462 12.1003 24.2368 11.9452 24.3365C11.634 24.5366 11.2283 24.7826 10.8138 25.0215C10.3997 25.2602 9.97184 25.4949 9.61693 25.6709C9.44005 25.7587 9.27581 25.8346 9.13768 25.8896C9.06876 25.917 9.0011 25.9413 8.93835 25.9592C8.88208 25.9753 8.80314 25.9944 8.72091 25.9944C8.58927 25.9944 8.43706 25.9451 8.32137 25.903C8.18697 25.8541 8.02838 25.7863 7.85809 25.7071C7.51658 25.5481 7.10804 25.3337 6.71526 25.1067C6.3237 24.8805 5.93804 24.6362 5.64605 24.4166C5.50128 24.3078 5.3688 24.197 5.26882 24.0912C5.21899 24.0385 5.16888 23.9783 5.12928 23.9126C5.09279 23.8521 5.04473 23.7537 5.04473 23.6325V23.0648C4.99749 23.0157 4.93542 22.9519 4.86112 22.876C4.70445 22.7159 4.49544 22.5039 4.26104 22.2669C3.67238 21.6719 2.92583 20.9218 2.45199 20.4466L2.3675 20.3618L2.24096 19.5596C2.18113 19.5115 2.10019 19.4463 2.00477 19.369C1.79587 19.1996 1.51681 18.9713 1.23732 18.7364C0.958789 18.5022 0.67581 18.2581 0.460862 18.0581C0.354256 17.959 0.258195 17.8649 0.186545 17.7854C0.151397 17.7463 0.114952 17.703 0.0851076 17.6591C0.0702376 17.6373 0.0519197 17.6079 0.0361645 17.5735C0.0228915 17.5444 -0.00303817 17.4813 -0.00303817 17.3998V16.9425C-0.0189986 16.9233 -0.0358417 16.9027 -0.05334 16.8809C-0.120208 16.7975 -0.203786 16.6888 -0.297283 16.5641C-0.484656 16.3142 -0.717576 15.9927 -0.947169 15.6666C-1.17659 15.3408 -1.40468 15.0076 -1.58181 14.7345C-1.67015 14.5983 -1.74781 14.474 -1.80716 14.3716C-1.85786 14.284 -1.91935 14.1728 -1.94477 14.0812C-1.9651 14.008 -1.97824 13.9027 -1.9883 13.8033C-1.99937 13.6938 -2.00962 13.5585 -2.01869 13.4076C-2.03684 13.1055 -2.05076 12.7319 -2.05638 12.3607C-2.06198 11.9903 -2.0594 11.6168 -2.04378 11.3164C-2.03602 11.1669 -2.0247 11.0288 -2.00817 10.9154C-1.99994 10.859 -1.98951 10.8022 -1.97556 10.7501C-1.96377 10.706 -1.94113 10.6318 -1.89401 10.5631C-1.83593 10.4783 -1.73538 10.3946 -1.66309 10.3364C-1.57522 10.2657 -1.46423 10.1833 -1.34138 10.0955C-1.09494 9.91931 -0.785839 9.71085 -0.485479 9.51254C-0.184455 9.31379 0.110698 9.12332 0.330391 8.98267C0.403448 8.9359 0.468222 8.8946 0.522165 8.86028V8.15024C0.522165 8.05085 0.55877 7.97303 0.578598 7.93545C0.602051 7.891 0.630247 7.85146 0.655356 7.81946C0.705893 7.75504 0.770108 7.6883 0.835321 7.62542C0.96749 7.49797 1.13797 7.35381 1.30112 7.2218C1.4658 7.08855 1.62971 6.9623 1.75197 6.8697C1.77687 6.85084 1.80009 6.83334 1.8213 6.81741L2.01945 4.49816L2.07106 4.42036L2.38929 4.62121C2.07106 4.42036 2.07099 4.42047 2.07106 4.42036L2.07173 4.41935L2.07276 4.41782L2.07589 4.41317C2.07844 4.4094 2.08195 4.40426 2.08639 4.39786C2.09526 4.38505 2.10787 4.36714 2.12409 4.34481C2.1565 4.30017 2.20347 4.23769 2.26397 4.16284C2.38463 4.01357 2.56099 3.81283 2.78511 3.60574C3.20564 3.21714 3.82841 2.77462 4.59367 2.64821ZM2.75859 4.75054L2.60747 6.51934L5.59618 5.74195L4.52996 3.41854C4.05619 3.54553 3.63588 3.83813 3.30647 4.14253C3.1148 4.31964 2.96291 4.49245 2.85927 4.62066C2.81731 4.67257 2.78356 4.71678 2.75859 4.75054ZM6.04835 6.38961L2.35461 7.35037C2.3206 7.37565 2.27326 7.41104 2.21692 7.45372C2.09845 7.54344 1.94141 7.66445 1.78513 7.7909C1.62732 7.91859 1.47684 8.04658 1.36829 8.15125C1.33009 8.18809 1.30103 8.21828 1.28024 8.24168V8.8631L4.74604 11.1168C4.78755 11.0911 4.83278 11.0639 4.88071 11.0356C5.05111 10.935 5.26723 10.8141 5.49675 10.6886C5.90442 10.4659 6.36246 10.2246 6.69955 10.0498L7.37906 8.40516C7.35929 8.33466 7.34921 8.26644 7.34305 8.21045C7.32916 8.08434 7.32858 7.94542 7.33408 7.81299C7.34105 7.64499 7.35854 7.47203 7.37833 7.32272L6.04835 6.38961ZM8.13554 7.37797C8.11605 7.51733 8.0981 7.68485 8.09154 7.84291C8.08732 7.94452 8.08816 8.03457 8.09438 8.10686L11.2305 8.97081V7.24966L9.36654 6.42117C9.17591 6.5783 8.94114 6.76882 8.71785 6.94412C8.56658 7.06288 8.41836 7.17641 8.29164 7.26841C8.23979 7.30606 8.18668 7.34373 8.13554 7.37797ZM9.7836 5.79397L11.649 6.62311L14.1772 6.04549L12.0678 3.47361L10.3106 4.42322L9.7836 5.79397ZM10.0979 3.69285L11.8349 2.75414L12.0072 2.0631C11.9748 2.03264 11.938 1.99818 11.8973 1.96053C11.7359 1.81094 11.5163 1.61239 11.2815 1.41465C11.0453 1.21561 10.8009 1.02348 10.5888 0.883133C10.4825 0.812767 10.3921 0.760636 10.3204 0.727401C10.2619 0.700332 10.2345 0.694666 10.2314 0.693604C10.2024 0.694685 10.1376 0.702315 10.0286 0.723957C9.91727 0.746066 9.7802 0.778528 9.62428 0.818939C9.31278 0.899675 8.94119 1.00817 8.57782 1.11803C8.31722 1.19683 8.06401 1.27536 7.84193 1.34424C7.82502 1.34949 7.80829 1.35468 7.79175 1.35981C8.6819 2.08353 9.13597 2.54976 10.0979 3.69285ZM12.7586 2.1783L12.5762 2.90987L15.0923 5.97752L15.7808 6.31332L17.2918 5.00784C16.3701 4.2861 15.4448 3.46004 14.7251 2.78966C14.3176 2.41006 13.9743 2.07879 13.7327 1.84226C13.6703 1.78116 13.6146 1.72636 13.5664 1.67867L12.7586 2.1783ZM14.3843 1.43222C14.6115 1.65325 14.9072 1.93688 15.2487 2.25491C16.0102 2.96422 16.993 3.83899 17.9475 4.57168L18.8763 4.22745L18.6967 3.33435L17.3209 1.7343L15.3351 1.2436L14.3843 1.43222ZM19.258 4.87696L18.0822 5.31277L16.2164 6.92471L16.112 9.62373L18.7295 10.7821C19.3494 9.78032 19.8266 8.62309 20.1571 7.67862C20.3367 7.16569 20.4713 6.72018 20.5609 6.40343C20.5936 6.28789 20.6203 6.1896 20.6409 6.11154L19.258 4.87696ZM21.2168 6.85838C21.6698 7.5811 22.1207 8.50146 22.3711 9.05927L21.5133 10.9542L19.6631 11.5636L19.3469 11.2149C20.0232 10.1351 20.5312 8.8987 20.8746 7.91749C21.0154 7.51519 21.1294 7.15304 21.2168 6.85838ZM18.6445 11.5565L15.7655 10.2824L13.8211 11.6299L13.274 13.0752C13.2948 13.0863 13.3166 13.0979 13.3394 13.1099C13.5619 13.2277 13.8813 13.3931 14.2677 13.5833C15.026 13.9566 16.0372 14.4226 17.0771 14.8101H18.1239L19.1669 13.9547V12.1324L18.6445 11.5565ZM19.9249 12.2577V13.9485L22.9066 16.2613L23.0415 13.3669L21.6624 11.6855L19.9249 12.2577ZM22.8725 17.1796L19.5526 14.6044L18.6455 15.3484C18.6464 15.4018 18.6471 15.466 18.6474 15.54C18.6483 15.775 18.6445 16.1093 18.6259 16.5093C18.5921 17.2375 18.5089 18.1907 18.3128 19.162L19.5803 19.7911L21.6094 19.1742L22.8725 18.164V17.1796ZM18.9273 20.2966L17.8491 19.7616L17.1645 19.9724C17.2061 21.0943 17.1625 21.605 17.1103 22.2169C17.11 22.2201 17.1097 22.2233 17.1094 22.2265C17.501 21.8078 17.9042 21.3795 18.2543 21.0084C18.5176 20.7295 18.751 20.4827 18.9273 20.2966ZM16.2983 22.8882C16.3169 22.5881 16.3377 22.3467 16.3568 22.1238C16.4073 21.5364 16.4467 21.0779 16.4076 20.0158L14.9268 19.7532C14.8917 19.7751 14.8498 19.8014 14.8022 19.8313C14.6467 19.929 14.4298 20.0661 14.185 20.2236C13.7589 20.4975 13.2527 20.8299 12.8369 21.1225C12.8818 21.4246 12.9205 21.773 12.9494 22.0634C12.9632 22.2014 12.9749 22.3278 12.9842 22.4321C13.066 22.4451 13.1625 22.4603 13.2706 22.4772C13.6198 22.5318 14.0887 22.6036 14.5681 22.6726C15.0483 22.7418 15.5358 22.8078 15.9236 22.8511C16.0656 22.867 16.1919 22.8796 16.2983 22.8882ZM12.2468 22.7036C12.2455 22.6879 12.244 22.6701 12.2423 22.6502C12.2409 22.6327 12.2392 22.6136 12.2375 22.5931C12.2275 22.4773 12.213 22.3162 12.1949 22.135C12.1643 21.8286 12.1243 21.4723 12.0794 21.1808C11.4747 20.8069 10.7604 20.3442 10.1832 19.9655C9.87062 19.7604 9.59738 19.5794 9.40227 19.4497C9.39039 19.4418 9.3788 19.4341 9.36751 19.4266C8.75522 20.1043 7.93175 21.0023 7.21876 21.751C6.81778 22.1721 6.44793 22.5499 6.16902 22.8154C6.03106 22.9467 5.90743 23.0582 5.80992 23.1343C5.80758 23.1362 5.80521 23.138 5.80281 23.1399V23.564C5.80893 23.5712 5.81663 23.5799 5.82621 23.59C5.88435 23.6516 5.97872 23.7331 6.10892 23.831C6.36685 24.025 6.72352 24.2521 7.10161 24.4706C7.47848 24.6883 7.86691 24.8919 8.18459 25.0397C8.34389 25.1139 8.48045 25.1717 8.58612 25.2101C8.65855 25.2365 8.69991 25.2473 8.71742 25.2518C8.71969 25.2512 8.72218 25.2505 8.72491 25.2497C8.75426 25.2413 8.79611 25.2269 8.85145 25.2049C8.96182 25.161 9.10503 25.0953 9.27325 25.0119C9.60853 24.8455 10.0214 24.6194 10.428 24.385C10.8342 24.1508 11.2292 23.9112 11.528 23.7191C11.678 23.6227 11.8002 23.5405 11.8864 23.4782C11.9236 23.4513 11.9509 23.4304 11.9695 23.4153C12.0113 23.3311 12.0773 23.1672 12.1432 22.9903C12.1788 22.895 12.2108 22.8055 12.2341 22.7397C12.2387 22.7266 12.2429 22.7146 12.2468 22.7036ZM11.9928 23.3949C11.993 23.3949 11.9917 23.3962 11.9885 23.3991C11.9911 23.3964 11.9926 23.395 11.9928 23.3949ZM5.78271 23.5377C5.78139 23.5356 5.7818 23.5359 5.78321 23.5386C5.78301 23.5382 5.78285 23.538 5.78271 23.5377ZM8.88194 18.8456L8.47435 17.4939L3.01416 19.5989L3.07992 20.0158C3.55506 20.4924 4.25084 21.1917 4.80657 21.7535C5.07084 22.0206 5.31033 22.2635 5.47831 22.4359C5.52543 22.3936 5.57926 22.3436 5.63958 22.2862C5.90472 22.0338 6.26433 21.6668 6.66332 21.2478C7.40311 20.4709 8.26521 19.5294 8.88194 18.8456ZM2.66175 18.9396L7.90709 16.9175C7.9001 16.9129 7.89306 16.9083 7.88598 16.9037C7.50896 16.6584 7.00302 16.328 6.48777 15.9876C5.97288 15.6474 5.44717 15.2964 5.03118 15.0102C4.82342 14.8673 4.64092 14.7391 4.50003 14.6358C4.47056 14.6142 4.44117 14.5925 4.41259 14.5709C4.32578 14.6219 4.2188 14.688 4.09393 14.7675C3.82205 14.9407 3.4762 15.1704 3.08928 15.4305C2.861 15.5839 2.61859 15.7478 2.36964 15.916C1.83649 16.2765 1.27338 16.6571 0.755041 16.9988V17.2962C0.755368 17.2966 0.755696 17.2969 0.756027 17.2973C0.805648 17.3524 0.882832 17.4289 0.98412 17.5231C1.18496 17.71 1.45636 17.9444 1.73222 18.1763C2.0071 18.4073 2.28243 18.6326 2.48932 18.8003C2.55434 18.853 2.61254 18.9 2.66175 18.9396ZM0.450732 16.3068C0.93029 15.9894 1.44197 15.6435 1.93225 15.3121C2.1825 15.1429 2.42717 14.9775 2.65915 14.8216C3.04657 14.5612 3.3991 14.3269 3.6795 14.1484C3.81955 14.0592 3.94435 13.9821 4.04804 13.922C4.06755 13.9107 4.08716 13.8995 4.1067 13.8885L4.3505 11.7482L0.898607 9.50361C0.853591 9.53229 0.802451 9.56493 0.746368 9.60083C0.528475 9.74033 0.236522 9.92874 -0.0605348 10.1249C-0.358256 10.3214 -0.658214 10.5239 -0.893258 10.6919C-1.01115 10.7762 -1.10901 10.8491 -1.18078 10.9069C-1.21274 10.9326 -1.23432 10.9512 -1.24816 10.9635C-1.25105 10.978 -1.25428 10.9965 -1.25764 11.0195C-1.26954 11.1011 -1.27942 11.2142 -1.28668 11.3538C-1.30111 11.6315 -1.30386 11.9873 -1.29838 12.3498C-1.29291 12.7114 -1.27934 13.0742 -1.26191 13.3644C-1.25318 13.5097 -1.24361 13.6345 -1.23388 13.7307C-1.229 13.7789 -1.2243 13.8177 -1.21997 13.8472C-1.21694 13.8679 -1.21468 13.8798 -1.21362 13.885C-1.21326 13.8853 -1.21205 13.8878 -1.20968 13.8926C-1.20248 13.9071 -1.18456 13.9432 -1.14717 14.0078C-1.09664 14.095 -1.02645 14.2077 -0.941164 14.3392C-0.771036 14.6015 -0.548769 14.9264 -0.322281 15.248C-0.0959685 15.5694 0.132561 15.8848 0.314619 16.1276C0.364133 16.1936 0.409793 16.2537 0.450732 16.3068ZM-1.23929 10.9277C-1.23927 10.9278 -1.23963 10.929 -1.24046 10.9312C-1.23973 10.9288 -1.23931 10.9277 -1.23929 10.9277ZM5.11113 11.7668L4.85977 13.9734C4.8878 13.9947 4.91972 14.0185 4.95545 14.0447C5.08742 14.1414 5.26281 14.2647 5.4681 14.4059C5.87821 14.6881 6.39926 15.036 6.91289 15.3754C7.42616 15.7144 7.93052 16.0439 8.30665 16.2886C8.44946 16.3815 8.57374 16.4622 8.67297 16.5265C8.8026 16.3961 8.9876 16.2032 9.21499 15.9478C9.64053 15.4698 10.2143 14.7731 10.8511 13.8577C9.74887 13.1219 8.7616 12.3415 8.03189 11.7281C7.63207 11.392 7.3085 11.1051 7.08445 10.9019C7.02828 10.8509 6.97835 10.8052 6.93503 10.7653C6.61764 10.9307 6.22235 11.1397 5.86727 11.3337C5.64064 11.4576 5.43296 11.5739 5.27317 11.6682C5.20937 11.7059 5.15503 11.7389 5.11113 11.7668ZM7.44673 10.2196C7.49065 10.2601 7.54214 10.3073 7.60074 10.3604C7.81883 10.5583 8.13523 10.8388 8.52679 11.168C9.2798 11.801 10.3068 12.6104 11.4442 13.3567C11.6282 13.3148 11.8302 13.2839 11.9924 13.2624C12.0978 13.2485 12.1922 13.2378 12.2627 13.2305L12.4818 13.0332L13.0685 11.4832L11.407 9.78778L8.0116 8.8524L7.44673 10.2196ZM11.9885 9.31112L13.5537 10.9082L15.3519 9.66193L15.4556 6.98144L14.8013 6.66234L11.9885 7.30497V9.31112ZM13.0508 13.7983C13.1291 13.915 13.2213 14.0582 13.328 14.2327C13.6842 14.815 14.2037 15.749 14.9073 17.2129C15.4686 16.4034 15.7516 16.0822 16.0503 15.7431C16.1585 15.6202 16.2688 15.4949 16.3952 15.3432C15.4716 14.9798 14.5982 14.5742 13.9262 14.2435C13.5723 14.0693 13.2732 13.9153 13.0508 13.7983ZM17.195 15.5495C16.9387 15.8738 16.761 16.0743 16.5951 16.2615C16.2659 16.633 15.9836 16.9515 15.2273 18.0789V19.0549L16.7494 19.3249L17.5574 19.076C17.7519 18.1339 17.8351 17.1969 17.8686 16.4758C17.8864 16.0935 17.8901 15.7741 17.8894 15.5495H17.195ZM14.4692 19.161V18.0495C13.6448 16.2945 13.0567 15.2323 12.677 14.6115C12.4847 14.297 12.3466 14.0971 12.2591 13.9785C12.2583 13.9774 12.2575 13.9763 12.2566 13.9752C12.2079 13.9807 12.1529 13.9874 12.0942 13.9951C11.9323 14.0166 11.7569 14.0446 11.613 14.0776C10.9045 15.1157 10.2609 15.9006 9.78739 16.4326C9.54176 16.7085 9.3418 16.9164 9.20215 17.0564C9.1832 17.0754 9.16536 17.0931 9.14866 17.1096L9.63005 18.706C9.68108 18.7401 9.74842 18.785 9.82926 18.8387C10.0234 18.9678 10.2953 19.1479 10.6063 19.3519C11.1587 19.7144 11.8318 20.1505 12.4111 20.5103C12.8378 20.2108 13.3463 19.8771 13.7678 19.6062C14.0153 19.447 14.2345 19.3084 14.3917 19.2096C14.4196 19.1921 14.4455 19.1759 14.4692 19.161Z" fill="url(#paint1_linear_143_423)"/>
</g>
<defs>
<linearGradient id="paint0_linear_143_423" x1="11.3464" y1="0.72052" x2="11.3464" y2="24.6" gradientUnits="userSpaceOnUse">
<stop stop-color="#00A3F9"/>
<stop offset="1" stop-color="#00F1EF"/>
</linearGradient>
<linearGradient id="paint1_linear_143_423" x1="10.8763" y1="-0.0459595" x2="10.8763" y2="25.9944" gradientUnits="userSpaceOnUse">
<stop stop-color="#00A3F9"/>
<stop offset="1" stop-color="#00F1EF"/>
</linearGradient>
</defs>
</svg>
