<?xml version="1.0" standalone="no"?>
<!DOCTYPE svg PUBLIC "-//W3C//DTD SVG 20010904//EN"
 "http://www.w3.org/TR/2001/REC-SVG-20010904/DTD/svg10.dtd">
<svg version="1.0" xmlns="http://www.w3.org/2000/svg"
 width="800.000000pt" height="800.000000pt" viewBox="0 0 800.000000 800.000000"
 preserveAspectRatio="xMidYMid meet">
<metadata>
Created by potrace 1.14, written by Peter Selinger 2001-2017
</metadata>
<g transform="translate(0.000000,800.000000) scale(0.100000,-0.100000)"
fill="#000000" stroke="none">
<path d="M4075 7752 c-16 -9 -32 -19 -35 -22 -3 -3 -14 -10 -25 -16 -92 -50
-150 -82 -207 -115 -36 -22 -71 -39 -77 -39 -6 0 -11 -3 -11 -7 0 -5 -10 -13
-23 -19 -25 -12 -85 -45 -281 -156 -76 -43 -142 -78 -147 -78 -5 0 -9 -4 -9
-8 0 -4 -12 -13 -27 -19 -16 -7 -53 -26 -83 -43 -30 -18 -73 -42 -95 -53 -22
-12 -42 -24 -45 -27 -3 -3 -23 -15 -45 -27 -44 -23 -96 -52 -152 -84 -21 -12
-63 -35 -93 -52 -56 -30 -168 -93 -430 -242 -80 -45 -165 -93 -190 -106 -25
-13 -46 -27 -48 -31 -2 -5 -9 -8 -16 -8 -6 0 -28 -11 -47 -25 -20 -13 -39 -21
-43 -18 -3 4 -6 1 -6 -5 0 -7 -4 -12 -9 -12 -4 0 -51 -25 -104 -55 -52 -30
-98 -55 -102 -55 -3 0 -11 -5 -18 -10 -19 -17 -276 -160 -287 -160 -6 0 -10
-4 -10 -9 0 -5 -9 -13 -21 -16 -18 -6 -84 -42 -196 -107 -21 -12 -58 -32 -82
-45 -24 -12 -48 -26 -55 -31 -6 -5 -40 -25 -76 -45 -36 -19 -94 -51 -128 -71
-35 -20 -67 -36 -70 -36 -4 0 -20 -11 -37 -24 l-30 -24 0 -1906 -1 -1907 56
-31 c30 -18 64 -37 75 -43 11 -6 99 -56 195 -110 96 -54 200 -112 230 -128 30
-16 72 -40 92 -53 21 -13 40 -24 42 -24 5 0 74 -39 206 -116 14 -8 66 -37 115
-64 50 -28 97 -55 105 -60 8 -5 51 -29 95 -53 44 -25 98 -55 120 -67 22 -13
60 -34 85 -48 25 -14 87 -49 138 -78 52 -30 95 -54 97 -54 3 0 42 -23 89 -50
47 -28 89 -50 95 -50 6 0 11 -4 11 -10 0 -5 5 -10 10 -10 6 0 43 -19 83 -41
40 -23 92 -53 117 -67 25 -13 74 -42 110 -62 36 -20 85 -48 110 -62 55 -30
280 -157 335 -188 134 -76 162 -92 178 -97 9 -3 17 -9 17 -14 0 -5 5 -9 10 -9
6 0 74 -36 151 -80 76 -44 144 -80 149 -80 6 0 10 -4 10 -8 0 -4 12 -13 28
-19 15 -7 45 -22 67 -35 22 -13 70 -41 108 -62 l67 -38 90 51 c49 28 94 51 99
51 5 0 16 6 23 13 7 7 65 41 128 76 63 35 186 104 272 153 87 49 159 88 160
86 2 -2 10 3 18 10 8 7 92 55 185 108 94 52 177 99 185 104 8 5 31 18 50 28
19 11 177 99 350 197 173 98 340 191 370 207 30 17 101 57 157 89 56 33 104
59 107 59 3 0 30 16 60 35 30 19 57 35 60 35 3 0 47 24 98 53 51 30 100 57
108 60 8 4 29 15 45 26 33 20 61 36 185 105 47 26 92 51 100 56 55 33 144 83
195 110 33 18 110 61 171 96 61 35 116 64 123 64 6 0 11 4 11 8 0 5 10 14 23
19 l24 11 0 1911 0 1912 -86 46 c-47 26 -92 53 -99 60 -7 7 -17 13 -22 13 -7
0 -123 64 -425 235 -27 16 -68 38 -90 50 -22 12 -56 31 -76 43 -20 11 -47 26
-60 34 -13 7 -26 15 -29 18 -3 3 -23 14 -45 26 -35 18 -89 47 -191 105 -70 39
-79 44 -84 49 -3 3 -23 14 -45 26 -65 33 -177 96 -217 121 -21 13 -40 23 -42
23 -2 0 -43 23 -91 50 -48 28 -90 50 -95 50 -5 0 -10 3 -12 8 -1 4 -21 17 -43
28 -22 12 -74 41 -115 64 -41 23 -99 56 -129 72 -132 72 -396 223 -401 228 -3
3 -24 14 -47 24 -24 11 -43 22 -43 25 0 3 -15 13 -32 20 -18 8 -86 45 -152 83
-66 37 -123 68 -128 68 -4 0 -8 5 -8 10 0 6 -5 10 -11 10 -7 0 -75 36 -151 80
-77 44 -144 80 -148 80 -5 0 -10 3 -12 8 -1 4 -23 17 -48 30 -25 12 -63 33
-85 46 -61 35 -135 76 -138 76 -1 0 -15 -8 -32 -18z m112 -389 c37 -20 70 -41
71 -45 2 -4 9 -8 15 -8 32 -1 39 -16 27 -61 -7 -24 -13 -48 -14 -54 -14 -69
-18 -75 -74 -106 -119 -65 -208 -113 -237 -127 -16 -8 -36 -20 -44 -26 -7 -5
-20 -11 -29 -12 -8 -2 -18 -6 -21 -11 -3 -4 -43 -27 -87 -50 l-82 -43 -38 44
c-22 24 -61 69 -89 101 -27 32 -56 64 -62 71 -7 7 -13 17 -13 22 0 10 264 162
280 162 6 0 10 3 10 8 0 4 14 13 31 21 17 7 84 44 148 82 64 37 121 68 128 68
7 1 43 -16 80 -36z m456 -259 c23 -13 48 -27 56 -31 8 -3 109 -60 224 -125
116 -65 214 -118 219 -118 4 0 8 -5 8 -11 0 -5 4 -8 9 -4 5 3 12 1 16 -4 3 -5
18 -16 33 -24 15 -7 45 -24 67 -37 22 -12 132 -74 245 -138 368 -205 440 -247
440 -253 0 -5 -29 -36 -52 -54 -19 -16 -231 -197 -244 -209 -6 -6 -24 -22 -40
-35 -16 -13 -43 -36 -59 -52 l-31 -29 -64 31 c-36 17 -66 30 -68 30 -9 -4
-101 56 -117 77 -36 45 -119 147 -125 152 -3 3 -44 52 -90 110 -121 149 -123
152 -142 169 -10 8 -18 19 -18 24 0 5 -6 14 -13 21 -7 8 -29 33 -48 56 -18 23
-39 47 -44 54 -6 6 -30 36 -55 66 -25 30 -55 66 -67 80 -11 14 -57 70 -101
124 l-80 99 14 39 c7 21 11 38 8 38 -3 0 -2 5 1 10 4 7 19 3 41 -11 19 -11 53
-32 77 -45z m-1266 -265 c48 -56 105 -120 126 -143 27 -30 36 -47 32 -64 -6
-25 -147 -397 -171 -452 -11 -25 -62 -72 -179 -164 -224 -177 -204 -167 -262
-126 -26 19 -50 36 -53 39 -3 4 -12 11 -21 16 -10 6 -37 24 -60 41 -129 91
-197 138 -226 157 -18 12 -33 25 -33 29 0 4 -24 60 -54 123 -30 63 -57 124
-61 134 -5 16 14 30 107 82 62 35 127 71 143 81 17 10 46 26 65 36 19 9 41 23
48 29 7 7 24 16 38 19 13 3 24 10 24 15 0 5 5 9 11 9 6 0 52 24 102 53 51 30
133 76 182 102 50 27 92 52 93 57 2 4 12 8 23 8 10 0 19 5 19 10 0 24 24 3
107 -91z m1036 -38 c28 -36 54 -68 57 -71 15 -15 160 -190 160 -194 0 -3 10
-16 23 -29 12 -13 38 -43 57 -67 19 -25 43 -52 53 -62 9 -10 17 -21 17 -24 0
-3 6 -11 13 -18 22 -24 61 -70 97 -116 35 -44 44 -56 94 -115 30 -34 32 -45
11 -45 -20 0 -20 0 -57 -11 -18 -6 -43 -12 -55 -15 -13 -2 -112 -25 -220 -50
-109 -25 -209 -47 -223 -50 -14 -3 -69 -16 -124 -29 -110 -25 -111 -25 -226
27 -41 19 -160 73 -265 118 -104 46 -195 88 -201 92 -11 8 34 138 118 343 11
27 21 54 22 60 5 28 30 48 136 105 63 34 156 84 205 110 50 27 122 66 160 88
49 27 74 36 83 29 7 -6 36 -40 65 -76z m-2204 -503 c5 -13 10 -27 11 -33 2 -5
14 -30 27 -54 26 -50 24 -53 -42 -66 -45 -9 -54 -12 -57 -15 -2 -1 -10 -3 -18
-5 -21 -4 -228 -58 -382 -99 -124 -33 -157 -34 -101 -5 15 8 70 38 121 67 52
28 98 52 103 52 5 0 9 5 9 10 0 6 5 10 10 10 6 0 57 27 114 60 57 33 107 60
111 60 4 0 18 9 32 20 33 26 51 25 62 -2z m4062 -108 c39 -22 75 -40 80 -40 5
0 9 -4 9 -8 0 -4 12 -13 28 -19 28 -12 105 -55 185 -104 26 -16 50 -29 53 -29
3 0 43 -22 90 -50 47 -27 89 -50 93 -50 5 0 11 -3 13 -7 2 -5 32 -23 68 -42
36 -19 77 -42 91 -52 l26 -19 -25 -72 c-40 -119 -83 -242 -89 -258 -3 -8 -7
-19 -8 -25 -10 -38 -132 -326 -196 -462 -27 -57 -49 -108 -49 -113 0 -6 -4
-10 -10 -10 -5 0 -10 -6 -10 -12 0 -10 -132 -252 -145 -266 -1 -2 -32 11 -67
27 -36 17 -67 31 -71 31 -3 0 -48 20 -101 45 -53 25 -99 45 -101 45 -2 0 -32
13 -67 29 -35 16 -142 63 -238 106 -178 79 -203 92 -195 104 2 4 7 93 10 197
3 104 8 232 10 284 2 52 6 155 9 229 5 132 6 135 33 158 15 13 42 36 58 51 17
15 59 52 95 82 36 30 67 57 70 60 3 3 47 41 98 85 52 44 110 95 130 112 20 18
41 33 45 33 4 0 39 -18 78 -40z m-3555 -445 c128 -89 125 -86 118 -153 -8 -72
-7 -207 0 -250 5 -26 -11 -74 -84 -252 -49 -120 -90 -223 -90 -229 0 -6 -4
-11 -10 -11 -5 0 -10 -11 -10 -23 0 -24 -16 -42 -55 -63 -11 -6 -78 -42 -150
-79 -71 -38 -152 -81 -178 -97 -26 -15 -50 -28 -52 -28 -2 0 -47 -25 -100 -55
-52 -30 -100 -55 -107 -55 -13 0 -201 121 -206 133 -2 4 -8 7 -12 7 -5 0 -89
52 -187 116 -98 64 -215 141 -260 171 -46 29 -86 53 -89 52 -4 0 -10 3 -13 8
-3 5 -46 35 -96 68 -49 32 -92 59 -94 61 -6 6 -4 421 3 432 3 6 48 42 99 80
88 68 126 85 237 108 14 3 66 16 115 29 50 14 146 39 215 56 69 17 132 33 140
36 18 8 16 7 65 18 22 4 45 9 50 11 54 15 396 106 415 110 13 3 26 7 28 9 2 2
53 -31 113 -73 60 -42 147 -104 195 -137z m830 170 c33 -14 68 -30 79 -35 93
-42 165 -75 255 -114 58 -25 125 -56 150 -68 l45 -23 0 -263 c0 -145 -3 -268
-6 -274 -4 -7 -14 -6 -28 1 -11 7 -21 9 -21 7 0 -3 -11 -1 -25 4 -14 5 -36 12
-48 14 -12 3 -47 12 -77 21 -30 9 -79 22 -107 30 -29 8 -77 22 -105 30 -29 8
-78 21 -108 30 -30 9 -64 18 -75 19 -11 2 -20 5 -20 6 0 1 -9 4 -20 6 -11 2
-60 15 -110 29 -49 14 -97 28 -105 30 -8 2 -30 8 -48 14 -18 5 -35 10 -37 11
-3 0 -19 3 -36 7 l-31 6 5 101 c3 56 7 109 9 118 2 10 29 36 59 58 30 23 67
51 83 63 50 37 181 141 186 147 12 13 63 50 70 50 4 0 34 -11 66 -25z m1784
-103 l95 -47 -1 -45 c-1 -25 -4 -117 -8 -205 -4 -88 -9 -218 -12 -290 -2 -71
-6 -172 -8 -224 -2 -51 -8 -96 -14 -100 -33 -22 -128 -87 -132 -91 -3 -3 -25
-19 -50 -35 -25 -17 -49 -34 -55 -38 -5 -5 -68 -48 -140 -97 -71 -49 -135 -93
-140 -97 -48 -38 -29 -53 -297 221 l-252 258 -1 319 c0 275 2 320 15 324 13 4
90 21 130 30 8 1 33 8 55 13 22 6 51 13 65 16 28 5 32 5 180 40 58 14 116 27
130 30 14 2 45 9 70 15 25 7 57 13 72 16 15 2 36 9 46 14 11 6 21 9 23 7 2 -3
29 1 59 8 64 15 50 19 170 -42z m1855 -836 c-1 -294 -3 -537 -5 -539 -3 -2
-95 -34 -205 -71 l-200 -66 -52 56 c-47 50 -60 84 -32 84 5 0 9 4 9 9 0 4 23
48 51 96 61 107 122 225 125 244 2 8 8 17 14 21 7 4 12 10 11 13 0 6 25 64 74
172 35 78 141 344 160 404 10 29 23 65 31 79 7 14 10 30 7 35 -3 6 -2 8 3 5 5
-4 9 -233 9 -542z m-4104 180 c13 -2 164 -44 334 -91 171 -48 319 -89 330 -91
11 -2 61 -15 110 -29 50 -15 122 -35 162 -45 113 -31 113 -31 259 -181 76 -78
182 -186 234 -239 52 -53 108 -111 123 -127 l28 -30 -32 -84 c-17 -46 -35 -93
-39 -104 -5 -11 -23 -58 -40 -105 -17 -47 -35 -94 -40 -105 -4 -11 -14 -36
-21 -55 -7 -19 -30 -52 -52 -73 -30 -30 -46 -38 -70 -37 -18 1 -34 1 -37 0 -3
-1 -14 -3 -25 -5 -11 -2 -33 -6 -50 -9 -103 -19 -114 -19 -160 11 -25 15 -45
31 -45 36 0 4 -4 7 -10 7 -11 0 -144 91 -148 102 -2 4 -8 8 -13 8 -8 0 -191
132 -209 150 -3 3 -41 32 -85 64 -44 33 -89 68 -100 77 -11 10 -58 49 -105 86
-100 79 -271 221 -285 237 -5 6 -26 24 -45 40 -84 69 -180 161 -180 171 0 6
20 61 45 121 25 60 64 155 87 211 23 56 44 100 48 98 3 -2 17 -6 31 -9z
m-1856 -495 c224 -146 552 -358 603 -390 l42 -26 -6 -65 c-3 -36 -8 -78 -10
-95 -4 -30 -7 -61 -18 -165 -6 -55 -15 -134 -21 -180 -2 -14 -6 -52 -10 -85
-3 -33 -7 -69 -9 -80 -2 -11 -24 -32 -52 -49 -58 -34 -507 -328 -514 -336 -12
-13 -161 -110 -169 -110 -5 0 -12 -6 -14 -12 -3 -7 -6 -4 -7 7 -2 19 -2 1666
-1 1693 1 8 6 10 14 6 6 -5 84 -55 172 -113z m5199 -352 c22 -11 49 -32 60
-47 12 -15 28 -34 36 -42 8 -9 33 -36 55 -61 l40 -44 -1 -288 -1 -288 -30 -27
c-38 -34 -65 -57 -128 -107 -27 -22 -52 -42 -55 -45 -3 -3 -27 -24 -55 -45
-27 -22 -52 -43 -55 -47 -3 -4 -83 -7 -178 -7 l-172 0 -157 63 c-87 35 -189
77 -227 95 -38 17 -75 31 -82 31 -8 0 -14 5 -14 10 0 6 -5 10 -12 10 -23 0
-694 323 -715 344 -6 6 166 457 179 469 7 7 33 26 58 42 81 55 295 204 307
214 7 6 14 11 17 11 3 0 45 29 93 63 152 110 82 122 572 -95 234 -104 444
-198 465 -209z m-3679 205 c147 -132 192 -171 290 -254 187 -156 410 -335 494
-395 16 -11 99 -71 185 -132 86 -62 158 -113 161 -113 3 0 13 -7 22 -15 10 -8
26 -21 37 -28 20 -15 28 -3 -153 -247 -143 -192 -319 -402 -467 -556 l-61 -64
-39 28 c-22 16 -44 31 -49 33 -9 4 -112 71 -350 228 -55 36 -102 69 -105 72
-3 3 -18 14 -35 23 -42 23 -57 33 -282 185 -255 173 -364 251 -358 260 2 4 7
36 10 72 3 35 8 75 10 89 2 14 7 54 11 90 3 36 8 76 9 90 2 14 6 52 10 85 17
162 25 228 30 251 5 24 47 52 190 127 22 12 48 28 58 36 9 8 17 10 17 5 0 -5
4 -4 8 1 4 6 41 28 82 49 41 22 107 57 145 77 39 20 75 37 80 38 6 0 28 -16
50 -35z m4440 -778 c0 -241 -3 -440 -6 -442 -4 -2 -42 24 -86 59 -44 34 -95
73 -113 87 -18 14 -54 41 -79 61 l-46 37 0 268 0 269 150 52 c83 28 157 51
165 50 12 -2 14 -63 15 -441z m-2195 -320 c3 -1 39 -17 80 -37 148 -72 256
-121 444 -201 105 -44 195 -84 199 -88 4 -4 -7 -25 -26 -46 -19 -21 -68 -77
-109 -124 -41 -47 -119 -143 -172 -215 -54 -71 -104 -138 -112 -148 -8 -9 -14
-20 -14 -23 0 -7 -30 -37 -33 -33 -1 2 -53 105 -115 229 -123 246 -188 370
-279 530 -93 165 -102 180 -142 239 -20 31 -40 62 -45 69 -4 7 66 -24 156 -69
89 -46 165 -83 168 -83z m-547 54 c116 -165 287 -473 496 -895 190 -383 171
-325 171 -533 0 -151 -2 -181 -15 -186 -18 -6 -91 -53 -365 -232 -74 -48 -165
-109 -202 -136 -47 -33 -73 -45 -85 -41 -19 7 -186 111 -308 192 -79 52 -100
65 -132 82 -13 7 -23 16 -23 21 0 4 -4 8 -10 8 -5 0 -49 27 -98 60 -49 33 -94
60 -101 60 -6 0 -11 3 -11 8 0 4 -43 34 -94 67 -52 33 -99 69 -105 80 -5 11
-28 83 -51 160 -22 77 -44 147 -47 155 -3 8 -7 20 -8 25 -2 6 -12 43 -25 84
l-21 73 23 26 c13 14 37 39 53 57 98 103 148 158 200 220 32 39 61 72 64 75
26 22 314 401 402 530 l45 65 84 16 c47 8 94 15 105 15 12 -1 34 -22 58 -56z
m-2460 -198 c45 -33 118 -83 162 -112 44 -29 82 -56 85 -60 3 -4 10 -9 15 -11
9 -4 482 -315 650 -428 39 -26 78 -50 88 -54 9 -3 17 -10 17 -15 0 -5 -66 -35
-147 -66 -82 -31 -213 -82 -293 -113 -191 -73 -291 -112 -315 -123 -11 -4 -33
-13 -50 -18 -34 -12 -439 -168 -470 -181 -11 -5 -47 -19 -80 -31 -33 -12 -73
-28 -90 -35 -98 -40 -92 -39 -143 -14 -26 13 -63 33 -82 45 -19 11 -62 36 -95
54 -176 96 -195 110 -196 138 0 15 -1 138 -2 275 l-2 247 190 128 c105 69 192
129 195 133 3 3 16 12 29 19 14 7 30 17 35 22 9 7 258 172 372 245 31 20 42
16 127 -45z m4803 15 c23 -17 52 -39 64 -47 12 -8 32 -23 43 -33 26 -22 47
-39 182 -143 55 -42 102 -79 104 -81 3 -2 5 -173 5 -381 l1 -377 -30 -19 c-16
-10 -50 -30 -75 -44 -25 -14 -115 -65 -201 -113 -87 -49 -162 -89 -167 -89 -6
0 -12 -4 -14 -8 -1 -5 -39 -28 -83 -52 -44 -24 -99 -53 -122 -66 l-42 -23 -55
30 c-31 17 -56 32 -56 34 0 2 6 34 14 72 8 37 17 91 21 118 4 28 9 59 10 70 3
20 12 82 19 145 3 19 8 62 11 95 3 33 8 83 10 110 11 108 16 218 20 408 l3
198 27 21 c15 12 77 63 139 114 61 51 116 94 121 94 6 0 29 -15 51 -33z m-591
-269 c17 -10 4 -394 -20 -598 -3 -30 -8 -71 -10 -90 -13 -122 -16 -148 -21
-175 -2 -16 -7 -41 -9 -55 -3 -14 -7 -38 -10 -55 -6 -44 -14 -87 -22 -115 -3
-14 -6 -28 -5 -31 1 -4 -11 -10 -26 -13 -15 -4 -71 -21 -126 -37 -84 -27 -106
-30 -155 -23 -31 4 -59 7 -63 6 -5 -1 -8 1 -8 6 0 4 -15 7 -33 8 -17 1 -48 4
-67 8 -58 12 -143 27 -185 33 -84 11 -80 2 -81 169 -1 143 0 151 25 194 14 25
29 50 33 55 11 14 99 138 118 166 27 39 162 214 174 224 6 6 22 24 35 40 12
17 37 46 55 65 17 19 58 67 91 105 32 39 64 75 69 82 6 7 16 18 22 26 12 14
199 18 219 5z m-2979 -693 c9 -33 18 -64 20 -70 1 -5 18 -62 37 -125 53 -176
54 -156 -14 -230 -33 -36 -88 -96 -122 -134 -34 -38 -75 -84 -92 -101 -76 -82
-236 -254 -290 -312 l-60 -64 -58 33 c-33 18 -81 45 -108 60 -26 14 -119 67
-206 116 -157 89 -189 107 -333 187 -41 23 -93 53 -115 65 -22 13 -60 34 -85
48 -67 36 -67 38 -3 62 32 12 85 32 118 45 131 52 742 287 765 295 14 5 72 27
130 50 115 45 232 90 325 126 33 12 63 19 66 16 4 -4 15 -34 25 -67z m429
-652 c144 -95 177 -117 380 -248 172 -111 190 -122 253 -160 37 -23 64 -47 67
-59 8 -38 15 -80 20 -136 3 -30 8 -71 11 -90 5 -35 13 -125 19 -210 1 -26 -5
-64 -15 -90 -17 -45 -50 -71 -160 -126 -19 -10 -37 -21 -40 -24 -3 -3 -21 -13
-40 -22 -32 -16 -36 -15 -61 3 -15 10 -29 19 -32 19 -2 0 -65 34 -138 76 -74
42 -159 90 -189 107 -30 16 -137 77 -237 134 -100 56 -185 103 -187 103 -3 0
-35 18 -71 40 -36 22 -67 40 -69 40 -3 0 -43 22 -91 50 -48 27 -91 50 -96 50
-5 0 -9 5 -9 10 0 6 -6 10 -13 10 -7 0 -18 5 -24 11 -8 8 1 23 31 53 62 63
405 436 482 524 20 24 42 41 48 39 6 -3 79 -49 161 -104z m1715 -13 c36 -6 76
-13 90 -16 14 -2 36 -6 50 -8 26 -3 111 -19 120 -21 3 -1 29 -5 58 -10 l52 -8
1 -46 c0 -25 2 -65 3 -89 1 -24 -2 -49 -8 -56 -6 -7 -99 -62 -206 -122 -107
-59 -197 -112 -198 -116 -2 -5 -7 -6 -12 -3 -4 3 -13 -2 -20 -10 -7 -8 -16
-15 -20 -15 -5 0 -72 -36 -149 -80 -77 -44 -145 -80 -151 -80 -5 0 -10 -3 -10
-7 0 -5 -10 -13 -23 -19 -42 -20 -152 -79 -157 -84 -3 -3 -27 -17 -55 -32 -66
-34 -94 -26 -96 29 -2 45 -4 65 -14 158 -8 75 -9 82 -19 165 l-7 55 211 140
c117 77 217 142 223 144 6 2 16 8 22 13 41 37 211 136 229 133 12 -2 50 -9 86
-15z m830 6 c-15 -14 -40 -29 -156 -92 l-61 -33 0 35 c0 32 3 35 41 45 23 6
41 11 41 11 0 -1 32 10 70 23 84 29 83 29 65 11z"/>
</g>
</svg>
