<svg width="1440" height="1080" viewBox="0 0 1440 1080" fill="none" xmlns="http://www.w3.org/2000/svg">
<path fillRule="evenodd" clipRule="evenodd" d="M1502.84 263.663C1503.45 263.429 1504.1 263.288 1504.78 263.288C1507.77 263.288 1510.2 265.726 1510.2 268.732C1510.2 271.739 1507.77 274.177 1504.78 274.177C1504.1 274.177 1503.45 274.037 1502.84 273.803L1470.22 330.6C1471.28 331.592 1471.94 332.99 1471.94 334.554C1471.94 337.562 1469.51 340 1466.52 340C1463.82 340 1461.6 338.007 1461.19 335.408H1396.8C1396.39 338.007 1394.17 340 1391.47 340C1388.48 340 1386.06 337.562 1386.06 334.554C1386.06 332.882 1386.82 331.406 1388 330.409L1355.49 273.803C1354.88 274.037 1354.24 274.177 1353.55 274.177C1350.85 274.177 1348.63 272.184 1348.22 269.585H1283.31C1282.9 272.184 1280.68 274.177 1277.98 274.177C1277.29 274.177 1276.65 274.037 1276.04 273.803L1243.59 330.304C1244.84 331.303 1245.66 332.824 1245.66 334.554C1245.66 337.562 1243.24 340 1240.24 340C1237.25 340 1234.83 337.562 1234.83 334.554C1234.83 331.547 1237.25 329.111 1240.24 329.111C1240.9 329.111 1241.53 329.247 1242.12 329.465L1274.58 272.942C1273.36 271.945 1272.56 270.439 1272.56 268.732C1272.56 267.027 1273.36 265.52 1274.58 264.524L1242.12 208.001C1241.53 208.219 1240.9 208.355 1240.24 208.355C1237.54 208.355 1235.32 206.361 1234.91 203.76H1169.68C1169.27 206.361 1167.05 208.355 1164.35 208.355C1163.73 208.355 1163.15 208.229 1162.59 208.036L1130.08 264.639C1131.22 265.638 1131.96 267.092 1131.96 268.732C1131.96 271.739 1129.53 274.177 1126.54 274.177C1123.84 274.177 1121.62 272.184 1121.21 269.585H1119.39V267.883H1121.21C1121.62 265.282 1123.84 263.288 1126.54 263.288C1127.29 263.288 1128 263.442 1128.65 263.718L1161.09 207.237C1159.79 206.246 1158.93 204.684 1158.93 202.911C1158.93 201.136 1159.79 199.577 1161.09 198.583L1128.68 142.16C1128.08 142.391 1127.43 142.532 1126.75 142.532C1124.05 142.532 1121.83 140.538 1121.42 137.94H1056.51C1056.1 140.538 1053.88 142.532 1051.18 142.532C1050.36 142.532 1049.59 142.336 1048.9 142.012L1048.84 142.105L1047.37 141.251L1047.49 141.056C1046.43 140.061 1045.76 138.658 1045.76 137.089C1045.76 135.459 1046.48 134.016 1047.61 133.019L1015.08 76.3727C1014.51 76.5785 1013.9 76.7116 1013.26 76.7116C1010.56 76.7116 1008.34 74.7181 1007.93 72.117H1004V70.4148H1007.93C1008.34 67.8137 1010.56 65.8227 1013.26 65.8227C1013.9 65.8227 1014.51 65.9533 1015.08 66.1592L1047.47 9.75654C1046.18 8.75979 1045.33 7.20819 1045.33 5.44317C1045.33 2.43788 1047.75 0 1050.75 0C1053.45 0 1055.67 1.99349 1056.08 4.59205H1121.42C1121.83 1.99349 1124.05 0 1126.75 0C1129.74 0 1132.17 2.43788 1132.17 5.44317C1132.17 7.21823 1131.31 8.77737 1130.01 9.7716L1162.41 66.1943C1163.02 65.9633 1163.66 65.8227 1164.35 65.8227C1167.05 65.8227 1169.27 67.8137 1169.68 70.4148H1234.91C1235.32 67.8137 1237.54 65.8227 1240.24 65.8227C1240.93 65.8227 1241.58 65.9633 1242.18 66.1943L1274.63 9.69377C1273.38 8.69703 1272.56 7.17304 1272.56 5.44317C1272.56 2.43788 1274.99 0 1277.98 0C1280.68 0 1282.9 1.99349 1283.31 4.59205H1348.22C1348.63 1.99349 1350.85 0 1353.55 0C1356.54 0 1358.97 2.43788 1358.97 5.44317C1358.97 7.11529 1358.2 8.59158 1357.02 9.59083L1389.54 66.1943C1390.14 65.9633 1390.79 65.8227 1391.47 65.8227C1394.17 65.8227 1396.39 67.8137 1396.8 70.4148H1401.82V72.117H1396.8C1396.39 74.7181 1394.17 76.7116 1391.47 76.7116C1390.75 76.7116 1390.07 76.5635 1389.44 76.3074L1389.41 76.3601L1387.95 75.5065L1388 75.4136C1386.82 74.4143 1386.06 72.938 1386.06 71.2659C1386.06 69.5586 1386.85 68.0547 1388.07 67.058L1355.58 10.4846C1354.95 10.7407 1354.27 10.8889 1353.55 10.8889C1350.85 10.8889 1348.63 8.89537 1348.22 6.2943H1283.31C1282.9 8.89537 1280.68 10.8889 1277.98 10.8889C1277.32 10.8889 1276.69 10.7533 1276.11 10.5349L1243.64 67.0555C1244.86 68.0547 1245.66 69.5586 1245.66 71.2659C1245.66 72.9732 1244.86 74.4771 1243.64 75.4763L1276.11 131.997C1276.69 131.781 1277.32 131.643 1277.98 131.643C1280.68 131.643 1282.9 133.636 1283.31 136.238H1348.22C1348.63 133.636 1350.85 131.643 1353.55 131.643C1356.54 131.643 1358.97 134.081 1358.97 137.089C1358.97 140.096 1356.54 142.532 1353.55 142.532C1350.85 142.532 1348.63 140.538 1348.22 137.94H1283.31C1282.9 140.538 1280.68 142.532 1277.98 142.532C1277.32 142.532 1276.69 142.396 1276.11 142.178L1243.64 198.701C1244.86 199.7 1245.66 201.204 1245.66 202.911C1245.66 204.616 1244.86 206.123 1243.64 207.119L1276.11 263.642C1276.69 263.424 1277.32 263.288 1277.98 263.288C1280.68 263.288 1282.9 265.282 1283.31 267.883H1348.22C1348.63 265.282 1350.85 263.288 1353.55 263.288C1354.24 263.288 1354.89 263.429 1355.49 263.663L1388.63 205.952C1387.09 204.993 1386.06 203.29 1386.06 201.335C1386.06 198.327 1388.48 195.889 1391.47 195.889C1394.46 195.889 1396.89 198.327 1396.89 201.335C1396.89 204.34 1394.46 206.778 1391.47 206.778C1391.07 206.778 1390.68 206.728 1390.3 206.645L1357.02 264.586C1358.2 265.583 1358.97 267.062 1358.97 268.732C1358.97 270.439 1358.17 271.945 1356.95 272.942L1389.44 329.513C1390.07 329.257 1390.75 329.111 1391.47 329.111C1394.17 329.111 1396.39 331.105 1396.8 333.703H1461.19C1461.6 331.105 1463.82 329.111 1466.52 329.111C1467.35 329.111 1468.12 329.309 1468.82 329.641L1501.38 272.942C1500.16 271.943 1499.37 270.439 1499.37 268.732C1499.37 267.027 1500.16 265.523 1501.38 264.524L1468.82 207.825C1468.12 208.156 1467.35 208.355 1466.52 208.355C1463.53 208.355 1461.1 205.917 1461.1 202.911C1461.1 199.904 1463.53 197.466 1466.52 197.466C1469.51 197.466 1471.94 199.904 1471.94 202.911C1471.94 204.473 1471.28 205.874 1470.22 206.866L1502.84 263.663ZM1128.51 131.962C1127.95 131.771 1127.37 131.643 1126.75 131.643C1124.05 131.643 1121.83 133.636 1121.42 136.237H1056.51C1056.1 133.636 1053.88 131.643 1051.18 131.643C1050.41 131.643 1049.69 131.804 1049.04 132.09L1016.56 75.5516C1017.84 74.5574 1018.67 73.0158 1018.67 71.2659C1018.67 69.5159 1017.84 67.9769 1016.56 66.9801L1048.97 10.5624C1049.52 10.7608 1050.12 10.8888 1050.75 10.8888C1053.45 10.8888 1055.67 8.89535 1056.08 6.29427H1121.42C1121.83 8.89535 1124.05 10.8888 1126.75 10.8888C1127.37 10.8888 1127.95 10.7633 1128.51 10.57L1160.95 67.0555C1159.73 68.0547 1158.93 69.5586 1158.93 71.2659C1158.93 72.9731 1159.73 74.4771 1160.95 75.4763L1128.51 131.962ZM1242.12 197.82C1241.53 197.601 1240.9 197.466 1240.24 197.466C1237.54 197.466 1235.32 199.459 1234.91 202.058H1169.68C1169.27 199.459 1167.05 197.466 1164.35 197.466C1163.73 197.466 1163.15 197.591 1162.59 197.785L1130.15 141.299C1131.37 140.3 1132.17 138.796 1132.17 137.089C1132.17 135.381 1131.37 133.877 1130.15 132.878L1162.59 76.3927C1163.15 76.5835 1163.73 76.7116 1164.35 76.7116C1167.05 76.7116 1169.27 74.7181 1169.68 72.117H1234.91C1235.32 74.7181 1237.54 76.7116 1240.24 76.7116C1240.9 76.7116 1241.53 76.5735 1242.12 76.3551L1274.58 132.878C1273.36 133.877 1272.56 135.381 1272.56 137.089C1272.56 138.796 1273.36 140.3 1274.58 141.297L1242.12 197.82Z" fill="url(#paint0_radial_0_1)"/>
<path fillRule="evenodd" clipRule="evenodd" d="M1132.84 464.663C1133.45 464.429 1134.1 464.288 1134.78 464.288C1137.77 464.288 1140.2 466.726 1140.2 469.732C1140.2 472.739 1137.77 475.177 1134.78 475.177C1134.1 475.177 1133.45 475.037 1132.84 474.803L1100.22 531.6C1101.28 532.592 1101.94 533.99 1101.94 535.554C1101.94 538.562 1099.51 541 1096.52 541C1093.82 541 1091.6 539.007 1091.19 536.408H1026.8C1026.39 539.007 1024.17 541 1021.47 541C1018.48 541 1016.06 538.562 1016.06 535.554C1016.06 533.882 1016.82 532.406 1018 531.409L985.488 474.803C984.883 475.037 984.237 475.177 983.552 475.177C980.852 475.177 978.632 473.184 978.222 470.585H913.31C912.9 473.184 910.679 475.177 907.979 475.177C907.295 475.177 906.648 475.037 906.043 474.803L873.592 531.304C874.841 532.303 875.66 533.824 875.66 535.554C875.66 538.562 873.235 541 870.243 541C867.253 541 864.828 538.562 864.828 535.554C864.828 532.547 867.253 530.111 870.243 530.111C870.905 530.111 871.532 530.247 872.119 530.465L904.582 473.942C903.361 472.945 902.562 471.439 902.562 469.732C902.562 468.027 903.358 466.52 904.582 465.524L872.119 409.001C871.532 409.219 870.905 409.355 870.243 409.355C867.543 409.355 865.32 407.361 864.912 404.76H799.678C799.271 407.361 797.05 409.355 794.348 409.355C793.728 409.355 793.146 409.229 792.592 409.036L760.078 465.639C761.22 466.638 761.956 468.092 761.956 469.732C761.956 472.739 759.531 475.177 756.541 475.177C753.841 475.177 751.621 473.184 751.211 470.585H749.39V468.883H751.211C751.618 466.282 753.839 464.288 756.541 464.288C757.291 464.288 758.005 464.442 758.652 464.718L791.093 408.237C789.789 407.246 788.932 405.684 788.932 403.911C788.932 402.136 789.789 400.577 791.093 399.583L758.684 343.16C758.082 343.391 757.433 343.532 756.751 343.532C754.048 343.532 751.828 341.538 751.418 338.94H686.508C686.099 341.538 683.878 343.532 681.176 343.532C680.359 343.532 679.59 343.336 678.895 343.012L678.843 343.105L677.374 342.251L677.486 342.056C676.43 341.061 675.76 339.658 675.76 338.089C675.76 336.459 676.485 335.016 677.611 334.019L645.075 277.373C644.506 277.579 643.899 277.712 643.257 277.712C640.557 277.712 638.336 275.718 637.927 273.117H634V271.415H637.927C638.336 268.814 640.557 266.823 643.257 266.823C643.899 266.823 644.506 266.953 645.075 267.159L677.471 210.757C676.178 209.76 675.328 208.208 675.328 206.443C675.328 203.438 677.754 201 680.746 201C683.446 201 685.667 202.993 686.076 205.592H751.418C751.828 202.993 754.048 201 756.751 201C759.741 201 762.166 203.438 762.166 206.443C762.166 208.218 761.312 209.777 760.006 210.772L792.414 267.194C793.016 266.963 793.663 266.823 794.348 266.823C797.05 266.823 799.271 268.814 799.678 271.415H864.912C865.322 268.814 867.543 266.823 870.243 266.823C870.927 266.823 871.577 266.963 872.179 267.194L904.63 210.694C903.381 209.697 902.562 208.173 902.562 206.443C902.562 203.438 904.987 201 907.979 201C910.679 201 912.9 202.993 913.31 205.592H978.222C978.632 202.993 980.852 201 983.552 201C986.544 201 988.97 203.438 988.97 206.443C988.97 208.115 988.203 209.592 987.024 210.591L1019.54 267.194C1020.14 266.963 1020.79 266.823 1021.47 266.823C1024.17 266.823 1026.39 268.814 1026.8 271.415H1031.82V273.117H1026.8C1026.39 275.718 1024.17 277.712 1021.47 277.712C1020.75 277.712 1020.07 277.563 1019.44 277.307L1019.41 277.36L1017.95 276.506L1018 276.414C1016.82 275.414 1016.06 273.938 1016.06 272.266C1016.06 270.559 1016.85 269.055 1018.07 268.058L985.583 211.485C984.953 211.741 984.272 211.889 983.552 211.889C980.852 211.889 978.632 209.895 978.222 207.294H913.31C912.9 209.895 910.679 211.889 907.979 211.889C907.317 211.889 906.69 211.753 906.106 211.535L873.64 268.055C874.864 269.055 875.66 270.559 875.66 272.266C875.66 273.973 874.864 275.477 873.64 276.476L906.106 332.997C906.693 332.781 907.317 332.643 907.979 332.643C910.679 332.643 912.9 334.636 913.31 337.238H978.222C978.632 334.636 980.852 332.643 983.552 332.643C986.544 332.643 988.97 335.081 988.97 338.089C988.97 341.096 986.544 343.532 983.552 343.532C980.852 343.532 978.632 341.538 978.222 338.94H913.31C912.9 341.538 910.679 343.532 907.979 343.532C907.317 343.532 906.69 343.396 906.106 343.178L873.64 399.701C874.864 400.7 875.66 402.204 875.66 403.911C875.66 405.616 874.864 407.123 873.64 408.119L906.106 464.642C906.69 464.424 907.317 464.288 907.979 464.288C910.679 464.288 912.9 466.282 913.31 468.883H978.222C978.632 466.282 980.852 464.288 983.552 464.288C984.237 464.288 984.886 464.429 985.488 464.663L1018.63 406.952C1017.09 405.993 1016.06 404.29 1016.06 402.335C1016.06 399.327 1018.48 396.889 1021.47 396.889C1024.46 396.889 1026.89 399.327 1026.89 402.335C1026.89 405.34 1024.46 407.778 1021.47 407.778C1021.07 407.778 1020.68 407.728 1020.3 407.645L987.024 465.586C988.203 466.583 988.97 468.062 988.97 469.732C988.97 471.439 988.173 472.945 986.949 473.942L1019.44 530.513C1020.07 530.257 1020.75 530.111 1021.47 530.111C1024.17 530.111 1026.39 532.105 1026.8 534.703H1091.19C1091.6 532.105 1093.82 530.111 1096.52 530.111C1097.35 530.111 1098.12 530.309 1098.82 530.641L1131.38 473.942C1130.16 472.943 1129.37 471.439 1129.37 469.732C1129.37 468.027 1130.16 466.523 1131.38 465.524L1098.82 408.825C1098.12 409.156 1097.35 409.355 1096.52 409.355C1093.53 409.355 1091.1 406.917 1091.1 403.911C1091.1 400.904 1093.53 398.466 1096.52 398.466C1099.51 398.466 1101.94 400.904 1101.94 403.911C1101.94 405.473 1101.28 406.874 1100.22 407.866L1132.84 464.663ZM758.507 332.962C757.952 332.771 757.368 332.643 756.751 332.643C754.048 332.643 751.828 334.636 751.418 337.237H686.508C686.099 334.636 683.878 332.643 681.176 332.643C680.414 332.643 679.692 332.804 679.035 333.09L646.561 276.552C647.838 275.557 648.674 274.016 648.674 272.266C648.674 270.516 647.838 268.977 646.561 267.98L678.965 211.562C679.525 211.761 680.119 211.889 680.746 211.889C683.446 211.889 685.669 209.895 686.076 207.294H751.418C751.828 209.895 754.048 211.889 756.751 211.889C757.368 211.889 757.952 211.763 758.507 211.57L790.951 268.055C789.729 269.055 788.932 270.559 788.932 272.266C788.932 273.973 789.729 275.477 790.951 276.476L758.507 332.962ZM872.116 398.82C871.532 398.601 870.905 398.466 870.243 398.466C867.543 398.466 865.322 400.459 864.912 403.058H799.678C799.271 400.459 797.05 398.466 794.348 398.466C793.731 398.466 793.146 398.591 792.592 398.785L760.145 342.299C761.369 341.3 762.166 339.796 762.166 338.089C762.166 336.381 761.369 334.877 760.145 333.878L792.592 277.393C793.146 277.584 793.731 277.712 794.348 277.712C797.05 277.712 799.271 275.718 799.678 273.117H864.912C865.322 275.718 867.543 277.712 870.243 277.712C870.905 277.712 871.532 277.573 872.119 277.355L904.582 333.878C903.361 334.877 902.562 336.381 902.562 338.089C902.562 339.796 903.358 341.3 904.582 342.297L872.116 398.82Z" fill="url(#paint1_radial_0_1)"/>
<path fillRule="evenodd" clipRule="evenodd" d="M734.845 730.663C735.449 730.429 736.096 730.288 736.78 730.288C739.773 730.288 742.198 732.726 742.198 735.732C742.198 738.739 739.773 741.177 736.78 741.177C736.096 741.177 735.449 741.037 734.845 740.803L702.224 797.6C703.275 798.592 703.937 799.99 703.937 801.554C703.937 804.562 701.514 807 698.522 807C695.822 807 693.601 805.007 693.192 802.408H628.804C628.394 805.007 626.174 807 623.471 807C620.481 807 618.056 804.562 618.056 801.554C618.056 799.882 618.82 798.406 619.999 797.409L587.488 740.803C586.883 741.037 586.237 741.177 585.552 741.177C582.852 741.177 580.632 739.184 580.222 736.585H515.31C514.9 739.184 512.679 741.177 509.979 741.177C509.295 741.177 508.648 741.037 508.043 740.803L475.592 797.304C476.841 798.303 477.66 799.824 477.66 801.554C477.66 804.562 475.235 807 472.243 807C469.253 807 466.828 804.562 466.828 801.554C466.828 798.547 469.253 796.111 472.243 796.111C472.905 796.111 473.532 796.247 474.119 796.465L506.582 739.942C505.361 738.945 504.562 737.439 504.562 735.732C504.562 734.027 505.358 732.52 506.582 731.524L474.119 675.001C473.532 675.219 472.905 675.355 472.243 675.355C469.543 675.355 467.32 673.361 466.912 670.76H401.678C401.271 673.361 399.05 675.355 396.348 675.355C395.728 675.355 395.146 675.229 394.592 675.036L362.078 731.639C363.22 732.638 363.956 734.092 363.956 735.732C363.956 738.739 361.531 741.177 358.541 741.177C355.841 741.177 353.621 739.184 353.211 736.585H351.39V734.883H353.211C353.618 732.282 355.839 730.288 358.541 730.288C359.291 730.288 360.005 730.442 360.652 730.718L393.093 674.237C391.789 673.246 390.932 671.684 390.932 669.911C390.932 668.136 391.789 666.577 393.093 665.583L360.684 609.16C360.082 609.391 359.433 609.532 358.751 609.532C356.048 609.532 353.828 607.538 353.418 604.94H288.508C288.099 607.538 285.878 609.532 283.176 609.532C282.359 609.532 281.59 609.336 280.895 609.012L280.843 609.105L279.374 608.251L279.486 608.056C278.43 607.061 277.76 605.658 277.76 604.089C277.76 602.459 278.485 601.016 279.611 600.019L247.075 543.373C246.506 543.579 245.899 543.712 245.257 543.712C242.557 543.712 240.336 541.718 239.927 539.117H236V537.415H239.927C240.336 534.814 242.557 532.823 245.257 532.823C245.899 532.823 246.506 532.953 247.075 533.159L279.471 476.757C278.178 475.76 277.328 474.208 277.328 472.443C277.328 469.438 279.754 467 282.746 467C285.446 467 287.667 468.993 288.076 471.592H353.418C353.828 468.993 356.048 467 358.751 467C361.741 467 364.166 469.438 364.166 472.443C364.166 474.218 363.312 475.777 362.006 476.772L394.414 533.194C395.016 532.963 395.663 532.823 396.348 532.823C399.05 532.823 401.271 534.814 401.678 537.415H466.912C467.322 534.814 469.543 532.823 472.243 532.823C472.927 532.823 473.577 532.963 474.179 533.194L506.63 476.694C505.381 475.697 504.562 474.173 504.562 472.443C504.562 469.438 506.987 467 509.979 467C512.679 467 514.9 468.993 515.31 471.592H580.222C580.632 468.993 582.852 467 585.552 467C588.544 467 590.97 469.438 590.97 472.443C590.97 474.115 590.203 475.592 589.024 476.591L621.538 533.194C622.14 532.963 622.787 532.823 623.471 532.823C626.174 532.823 628.394 534.814 628.804 537.415H633.817V539.117H628.804C628.394 541.718 626.174 543.712 623.471 543.712C622.754 543.712 622.07 543.563 621.443 543.307L621.413 543.36L619.947 542.506L619.999 542.414C618.82 541.414 618.056 539.938 618.056 538.266C618.056 536.559 618.853 535.055 620.074 534.058L587.583 477.485C586.953 477.741 586.272 477.889 585.552 477.889C582.852 477.889 580.632 475.895 580.222 473.294H515.31C514.9 475.895 512.679 477.889 509.979 477.889C509.317 477.889 508.69 477.753 508.106 477.535L475.64 534.055C476.864 535.055 477.66 536.559 477.66 538.266C477.66 539.973 476.864 541.477 475.64 542.476L508.106 598.997C508.693 598.781 509.317 598.643 509.979 598.643C512.679 598.643 514.9 600.636 515.31 603.238H580.222C580.632 600.636 582.852 598.643 585.552 598.643C588.544 598.643 590.97 601.081 590.97 604.089C590.97 607.096 588.544 609.532 585.552 609.532C582.852 609.532 580.632 607.538 580.222 604.94H515.31C514.9 607.538 512.679 609.532 509.979 609.532C509.317 609.532 508.69 609.396 508.106 609.178L475.64 665.701C476.864 666.7 477.66 668.204 477.66 669.911C477.66 671.616 476.864 673.123 475.64 674.119L508.106 730.642C508.69 730.424 509.317 730.288 509.979 730.288C512.679 730.288 514.9 732.282 515.31 734.883H580.222C580.632 732.282 582.852 730.288 585.552 730.288C586.237 730.288 586.886 730.429 587.488 730.663L620.634 672.952C619.092 671.993 618.056 670.29 618.056 668.335C618.056 665.327 620.481 662.889 623.471 662.889C626.463 662.889 628.889 665.327 628.889 668.335C628.889 671.34 626.463 673.778 623.471 673.778C623.069 673.778 622.682 673.728 622.305 673.645L589.024 731.586C590.203 732.583 590.97 734.062 590.97 735.732C590.97 737.439 590.173 738.945 588.949 739.942L621.443 796.513C622.07 796.257 622.752 796.111 623.471 796.111C626.174 796.111 628.394 798.105 628.804 800.703H693.192C693.599 798.105 695.819 796.111 698.522 796.111C699.346 796.111 700.118 796.309 700.817 796.641L733.383 739.942C732.162 738.943 731.365 737.439 731.365 735.732C731.365 734.027 732.162 732.523 733.383 731.524L700.817 674.825C700.118 675.156 699.346 675.355 698.522 675.355C695.53 675.355 693.104 672.917 693.104 669.911C693.104 666.904 695.53 664.466 698.522 664.466C701.514 664.466 703.937 666.904 703.937 669.911C703.937 671.473 703.275 672.874 702.224 673.866L734.845 730.663ZM360.507 598.962C359.952 598.771 359.368 598.643 358.751 598.643C356.048 598.643 353.828 600.636 353.418 603.237H288.508C288.099 600.636 285.878 598.643 283.176 598.643C282.414 598.643 281.692 598.804 281.035 599.09L248.561 542.552C249.838 541.557 250.674 540.016 250.674 538.266C250.674 536.516 249.838 534.977 248.561 533.98L280.965 477.562C281.525 477.761 282.119 477.889 282.746 477.889C285.446 477.889 287.669 475.895 288.076 473.294H353.418C353.828 475.895 356.048 477.889 358.751 477.889C359.368 477.889 359.952 477.763 360.507 477.57L392.951 534.055C391.729 535.055 390.932 536.559 390.932 538.266C390.932 539.973 391.729 541.477 392.951 542.476L360.507 598.962ZM474.116 664.82C473.532 664.601 472.905 664.466 472.243 664.466C469.543 664.466 467.322 666.459 466.912 669.058H401.678C401.271 666.459 399.05 664.466 396.348 664.466C395.731 664.466 395.146 664.591 394.592 664.785L362.145 608.299C363.369 607.3 364.166 605.796 364.166 604.089C364.166 602.381 363.369 600.877 362.145 599.878L394.592 543.393C395.146 543.584 395.731 543.712 396.348 543.712C399.05 543.712 401.271 541.718 401.678 539.117H466.912C467.322 541.718 469.543 543.712 472.243 543.712C472.905 543.712 473.532 543.573 474.119 543.355L506.582 599.878C505.361 600.877 504.562 602.381 504.562 604.089C504.562 605.796 505.358 607.3 506.582 608.297L474.116 664.82Z" fill="url(#paint2_radial_0_1)"/>
<path fillRule="evenodd" clipRule="evenodd" d="M1061.35 727.337C1060.75 727.571 1060.1 727.712 1059.42 727.712C1056.43 727.712 1054 725.274 1054 722.268C1054 719.261 1056.43 716.823 1059.42 716.823C1060.1 716.823 1060.75 716.963 1061.35 717.197L1093.97 660.4C1092.92 659.408 1092.26 658.01 1092.26 656.446C1092.26 653.438 1094.68 651 1097.68 651C1100.38 651 1102.6 652.993 1103.01 655.592L1167.39 655.592C1167.8 652.993 1170.02 651 1172.73 651C1175.72 651 1178.14 653.438 1178.14 656.446C1178.14 658.118 1177.38 659.594 1176.2 660.591L1208.71 717.197C1209.31 716.963 1209.96 716.823 1210.65 716.823C1213.35 716.823 1215.57 718.816 1215.98 721.415L1280.89 721.415C1281.3 718.816 1283.52 716.823 1286.22 716.823C1286.9 716.823 1287.55 716.963 1288.15 717.197L1320.61 660.696C1319.36 659.697 1318.54 658.176 1318.54 656.446C1318.54 653.438 1320.96 651 1323.96 651C1326.95 651 1329.37 653.438 1329.37 656.446C1329.37 659.453 1326.95 661.889 1323.96 661.889C1323.29 661.889 1322.67 661.753 1322.08 661.535L1289.62 718.058C1290.84 719.055 1291.64 720.561 1291.64 722.268C1291.64 723.973 1290.84 725.48 1289.62 726.476L1322.08 782.999C1322.67 782.781 1323.29 782.645 1323.96 782.645C1326.66 782.645 1328.88 784.639 1329.29 787.24L1394.52 787.24C1394.93 784.639 1397.15 782.645 1399.85 782.645C1400.47 782.645 1401.05 782.771 1401.61 782.964L1434.12 726.361C1432.98 725.362 1432.24 723.908 1432.24 722.268C1432.24 719.261 1434.67 716.823 1437.66 716.823C1440.36 716.823 1442.58 718.816 1442.99 721.415L1444.81 721.415L1444.81 723.117L1442.99 723.117C1442.58 725.718 1440.36 727.712 1437.66 727.712C1436.91 727.712 1436.19 727.558 1435.55 727.282L1403.11 783.763C1404.41 784.754 1405.27 786.316 1405.27 788.089C1405.27 789.864 1404.41 791.423 1403.11 792.417L1435.51 848.84C1436.12 848.609 1436.77 848.468 1437.45 848.468C1440.15 848.468 1442.37 850.462 1442.78 853.06L1507.69 853.06C1508.1 850.462 1510.32 848.468 1513.02 848.468C1513.84 848.468 1514.61 848.664 1515.3 848.988L1515.36 848.895L1516.82 849.749L1516.71 849.944C1517.77 850.939 1518.44 852.342 1518.44 853.911C1518.44 855.541 1517.71 856.984 1516.59 857.981L1549.12 914.627C1549.69 914.421 1550.3 914.288 1550.94 914.288C1553.64 914.288 1555.86 916.282 1556.27 918.883L1560.2 918.883L1560.2 920.585L1556.27 920.585C1555.86 923.186 1553.64 925.177 1550.94 925.177C1550.3 925.177 1549.69 925.047 1549.12 924.841L1516.73 981.243C1518.02 982.24 1518.87 983.792 1518.87 985.557C1518.87 988.562 1516.44 991 1513.45 991C1510.75 991 1508.53 989.007 1508.12 986.408L1442.78 986.408C1442.37 989.007 1440.15 991 1437.45 991C1434.46 991 1432.03 988.562 1432.03 985.557C1432.03 983.782 1432.89 982.223 1434.19 981.228L1401.78 924.806C1401.18 925.037 1400.53 925.177 1399.85 925.177C1397.15 925.177 1394.93 923.186 1394.52 920.585L1329.29 920.585C1328.88 923.186 1326.66 925.177 1323.96 925.177C1323.27 925.177 1322.62 925.037 1322.02 924.806L1289.57 981.306C1290.82 982.303 1291.64 983.827 1291.64 985.557C1291.64 988.562 1289.21 991 1286.22 991C1283.52 991 1281.3 989.006 1280.89 986.408L1215.98 986.408C1215.57 989.006 1213.35 991 1210.65 991C1207.65 991 1205.23 988.562 1205.23 985.557C1205.23 983.885 1206 982.408 1207.17 981.409L1174.66 924.806C1174.06 925.037 1173.41 925.177 1172.73 925.177C1170.02 925.177 1167.8 923.186 1167.39 920.585L1162.38 920.585L1162.38 918.883L1167.39 918.883C1167.8 916.282 1170.02 914.288 1172.73 914.288C1173.44 914.288 1174.13 914.437 1174.76 914.693L1174.79 914.64L1176.25 915.494L1176.2 915.586C1177.38 916.586 1178.14 918.062 1178.14 919.734C1178.14 921.441 1177.35 922.945 1176.12 923.942L1208.62 980.515C1209.24 980.259 1209.93 980.111 1210.65 980.111C1213.35 980.111 1215.57 982.105 1215.98 984.706L1280.89 984.706C1281.3 982.105 1283.52 980.111 1286.22 980.111C1286.88 980.111 1287.51 980.247 1288.09 980.465L1320.56 923.944C1319.33 922.945 1318.54 921.441 1318.54 919.734C1318.54 918.027 1319.33 916.523 1320.56 915.524L1288.09 859.003C1287.51 859.219 1286.88 859.357 1286.22 859.357C1283.52 859.357 1281.3 857.364 1280.89 854.762L1215.98 854.762C1215.57 857.364 1213.35 859.357 1210.65 859.357C1207.65 859.357 1205.23 856.919 1205.23 853.911C1205.23 850.904 1207.65 848.468 1210.65 848.468C1213.35 848.468 1215.57 850.462 1215.98 853.06L1280.89 853.06C1281.3 850.462 1283.52 848.468 1286.22 848.468C1286.88 848.468 1287.51 848.604 1288.09 848.822L1320.56 792.299C1319.33 791.3 1318.54 789.796 1318.54 788.089C1318.54 786.384 1319.33 784.877 1320.56 783.881L1288.09 727.358C1287.51 727.576 1286.88 727.712 1286.22 727.712C1283.52 727.712 1281.3 725.718 1280.89 723.117L1215.98 723.117C1215.57 725.718 1213.35 727.712 1210.65 727.712C1209.96 727.712 1209.31 727.571 1208.71 727.337L1175.56 785.048C1177.11 786.007 1178.14 787.709 1178.14 789.665C1178.14 792.673 1175.72 795.111 1172.73 795.111C1169.73 795.111 1167.31 792.673 1167.31 789.665C1167.31 786.66 1169.73 784.222 1172.73 784.222C1173.13 784.222 1173.52 784.272 1173.89 784.355L1207.17 726.414C1206 725.417 1205.23 723.938 1205.23 722.268C1205.23 720.561 1206.03 719.055 1207.25 718.058L1174.76 661.487C1174.13 661.743 1173.45 661.889 1172.73 661.889C1170.02 661.889 1167.8 659.895 1167.39 657.297L1103.01 657.297C1102.6 659.895 1100.38 661.889 1097.68 661.889C1096.85 661.889 1096.08 661.69 1095.38 661.359L1062.81 718.058C1064.04 719.057 1064.83 720.561 1064.83 722.268C1064.83 723.973 1064.04 725.477 1062.81 726.476L1095.38 783.175C1096.08 782.844 1096.85 782.645 1097.68 782.645C1100.67 782.645 1103.09 785.083 1103.09 788.089C1103.09 791.096 1100.67 793.534 1097.68 793.534C1094.68 793.534 1092.26 791.096 1092.26 788.089C1092.26 786.527 1092.92 785.126 1093.97 784.134L1061.35 727.337ZM1435.69 859.038C1436.25 859.229 1436.83 859.357 1437.45 859.357C1440.15 859.357 1442.37 857.364 1442.78 854.763L1507.69 854.763C1508.1 857.364 1510.32 859.357 1513.02 859.357C1513.78 859.357 1514.51 859.196 1515.16 858.91L1547.64 915.448C1546.36 916.443 1545.52 917.984 1545.52 919.734C1545.52 921.484 1546.36 923.023 1547.64 924.02L1515.23 980.438C1514.67 980.239 1514.08 980.111 1513.45 980.111C1510.75 980.111 1508.53 982.105 1508.12 984.706L1442.78 984.706C1442.37 982.105 1440.15 980.111 1437.45 980.111C1436.83 980.111 1436.25 980.237 1435.69 980.43L1403.25 923.945C1404.47 922.945 1405.27 921.441 1405.27 919.734C1405.27 918.027 1404.47 916.523 1403.25 915.524L1435.69 859.038ZM1322.08 793.18C1322.67 793.399 1323.29 793.534 1323.96 793.534C1326.66 793.534 1328.88 791.541 1329.29 788.942L1394.52 788.942C1394.93 791.541 1397.15 793.534 1399.85 793.534C1400.47 793.534 1401.05 793.409 1401.61 793.215L1434.05 849.701C1432.83 850.7 1432.03 852.204 1432.03 853.911C1432.03 855.619 1432.83 857.123 1434.05 858.122L1401.61 914.607C1401.05 914.416 1400.47 914.288 1399.85 914.288C1397.15 914.288 1394.93 916.282 1394.52 918.883L1329.29 918.883C1328.88 916.282 1326.66 914.288 1323.96 914.288C1323.29 914.288 1322.67 914.426 1322.08 914.645L1289.62 858.122C1290.84 857.123 1291.64 855.619 1291.64 853.911C1291.64 852.204 1290.84 850.7 1289.62 849.703L1322.08 793.18Z" fill="url(#paint3_radial_0_1)"/>
<path fillRule="evenodd" clipRule="evenodd" d="M7.15542 816.337C6.55096 816.571 5.90401 816.712 5.21963 816.712C2.22729 816.712 -0.198066 814.274 -0.198066 811.268C-0.198066 808.261 2.22729 805.823 5.21963 805.823C5.90402 805.823 6.55096 805.963 7.15542 806.197L39.7764 749.4C38.7249 748.408 38.063 747.01 38.063 745.446C38.063 742.438 40.4858 740 43.4782 740C46.1783 740 48.3988 741.993 48.8084 744.592L113.196 744.592C113.606 741.993 115.826 740 118.529 740C121.519 740 123.944 742.438 123.944 745.446C123.944 747.118 123.18 748.594 122.001 749.591L154.512 806.197C155.117 805.963 155.763 805.823 156.448 805.823C159.148 805.823 161.368 807.816 161.778 810.415L226.691 810.415C227.1 807.816 229.321 805.823 232.021 805.823C232.705 805.823 233.352 805.963 233.957 806.197L266.408 749.696C265.159 748.697 264.34 747.176 264.34 745.446C264.34 742.438 266.765 740 269.757 740C272.747 740 275.172 742.438 275.172 745.446C275.172 748.453 272.747 750.889 269.757 750.889C269.095 750.889 268.468 750.753 267.881 750.535L235.418 807.058C236.639 808.055 237.438 809.561 237.438 811.268C237.438 812.973 236.642 814.48 235.418 815.476L267.881 871.999C268.468 871.781 269.095 871.645 269.757 871.645C272.457 871.645 274.68 873.639 275.088 876.24L340.322 876.24C340.729 873.639 342.95 871.645 345.652 871.645C346.272 871.645 346.854 871.771 347.408 871.964L379.922 815.361C378.78 814.362 378.044 812.908 378.044 811.268C378.044 808.261 380.469 805.823 383.459 805.823C386.159 805.823 388.379 807.816 388.789 810.415L390.61 810.415L390.61 812.117L388.789 812.117C388.382 814.718 386.161 816.712 383.459 816.712C382.709 816.712 381.995 816.558 381.348 816.282L348.907 872.763C350.211 873.754 351.068 875.316 351.068 877.089C351.068 878.864 350.211 880.423 348.907 881.417L381.316 937.84C381.918 937.609 382.567 937.468 383.249 937.468C385.952 937.468 388.172 939.462 388.582 942.06L453.492 942.06C453.901 939.462 456.122 937.468 458.824 937.468C459.641 937.468 460.41 937.664 461.105 937.988L461.157 937.895L462.626 938.749L462.514 938.944C463.57 939.939 464.24 941.342 464.24 942.911C464.24 944.541 463.515 945.984 462.389 946.981L494.925 1003.63C495.494 1003.42 496.101 1003.29 496.743 1003.29C499.443 1003.29 501.664 1005.28 502.073 1007.88L506 1007.88L506 1009.59L502.073 1009.59C501.664 1012.19 499.443 1014.18 496.743 1014.18C496.101 1014.18 495.494 1014.05 494.925 1013.84L462.529 1070.24C463.822 1071.24 464.672 1072.79 464.672 1074.56C464.672 1077.56 462.246 1080 459.254 1080C456.554 1080 454.333 1078.01 453.924 1075.41L388.582 1075.41C388.172 1078.01 385.952 1080 383.249 1080C380.259 1080 377.834 1077.56 377.834 1074.56C377.834 1072.78 378.688 1071.22 379.994 1070.23L347.586 1013.81C346.984 1014.04 346.337 1014.18 345.652 1014.18C342.95 1014.18 340.729 1012.19 340.322 1009.59L275.088 1009.59C274.678 1012.19 272.457 1014.18 269.757 1014.18C269.073 1014.18 268.423 1014.04 267.821 1013.81L235.37 1070.31C236.619 1071.3 237.438 1072.83 237.438 1074.56C237.438 1077.56 235.013 1080 232.021 1080C229.321 1080 227.1 1078.01 226.69 1075.41L161.778 1075.41C161.368 1078.01 159.148 1080 156.448 1080C153.456 1080 151.03 1077.56 151.03 1074.56C151.03 1072.88 151.797 1071.41 152.976 1070.41L120.462 1013.81C119.86 1014.04 119.213 1014.18 118.529 1014.18C115.826 1014.18 113.606 1012.19 113.196 1009.59L108.183 1009.59L108.183 1007.88L113.196 1007.88C113.606 1005.28 115.826 1003.29 118.529 1003.29C119.246 1003.29 119.93 1003.44 120.557 1003.69L120.587 1003.64L122.053 1004.49L122.001 1004.59C123.18 1005.59 123.944 1007.06 123.944 1008.73C123.944 1010.44 123.147 1011.95 121.926 1012.94L154.417 1069.52C155.047 1069.26 155.728 1069.11 156.448 1069.11C159.148 1069.11 161.368 1071.1 161.778 1073.71L226.69 1073.71C227.1 1071.1 229.321 1069.11 232.021 1069.11C232.683 1069.11 233.31 1069.25 233.894 1069.47L266.36 1012.94C265.136 1011.95 264.34 1010.44 264.34 1008.73C264.34 1007.03 265.136 1005.52 266.36 1004.52L233.894 948.003C233.307 948.219 232.683 948.357 232.021 948.357C229.321 948.357 227.1 946.364 226.691 943.762L161.778 943.762C161.368 946.364 159.148 948.357 156.448 948.357C153.456 948.357 151.03 945.919 151.03 942.911C151.03 939.904 153.456 937.468 156.448 937.468C159.148 937.468 161.368 939.462 161.778 942.06L226.691 942.06C227.1 939.462 229.321 937.468 232.021 937.468C232.683 937.468 233.31 937.604 233.894 937.822L266.36 881.299C265.136 880.3 264.34 878.796 264.34 877.089C264.34 875.384 265.136 873.877 266.36 872.881L233.894 816.358C233.31 816.576 232.683 816.712 232.021 816.712C229.321 816.712 227.1 814.718 226.691 812.117L161.778 812.117C161.368 814.718 159.148 816.712 156.448 816.712C155.763 816.712 155.114 816.571 154.512 816.337L121.367 874.048C122.908 875.007 123.944 876.709 123.944 878.665C123.944 881.673 121.519 884.111 118.529 884.111C115.537 884.111 113.111 881.673 113.111 878.665C113.111 875.66 115.537 873.222 118.529 873.222C118.931 873.222 119.318 873.272 119.695 873.355L152.976 815.414C151.797 814.417 151.03 812.938 151.03 811.268C151.03 809.561 151.827 808.055 153.051 807.058L120.557 750.487C119.93 750.743 119.248 750.889 118.529 750.889C115.826 750.889 113.606 748.895 113.196 746.297L48.8084 746.297C48.4013 748.895 46.1808 750.889 43.4782 750.889C42.6539 750.889 41.8821 750.69 41.1827 750.359L8.6166 807.058C9.83804 808.057 10.6348 809.561 10.6348 811.268C10.6348 812.973 9.83804 814.477 8.6166 815.476L41.1827 872.175C41.8821 871.844 42.6539 871.645 43.4782 871.645C46.4705 871.645 48.8959 874.083 48.8959 877.089C48.8959 880.096 46.4705 882.534 43.4782 882.534C40.4858 882.534 38.063 880.096 38.063 877.089C38.063 875.527 38.7249 874.126 39.7764 873.134L7.15542 816.337ZM381.493 948.038C382.048 948.229 382.632 948.357 383.249 948.357C385.952 948.357 388.172 946.364 388.582 943.763L453.492 943.763C453.901 946.364 456.122 948.357 458.824 948.357C459.586 948.357 460.308 948.196 460.965 947.91L493.439 1004.45C492.162 1005.44 491.326 1006.98 491.326 1008.73C491.326 1010.48 492.162 1012.02 493.439 1013.02L461.035 1069.44C460.475 1069.24 459.881 1069.11 459.254 1069.11C456.554 1069.11 454.331 1071.1 453.924 1073.71L388.582 1073.71C388.172 1071.1 385.952 1069.11 383.249 1069.11C382.632 1069.11 382.048 1069.24 381.493 1069.43L349.049 1012.94C350.271 1011.95 351.068 1010.44 351.068 1008.73C351.068 1007.03 350.271 1005.52 349.049 1004.52L381.493 948.038ZM267.884 882.18C268.468 882.399 269.095 882.534 269.757 882.534C272.457 882.534 274.678 880.541 275.088 877.942L340.322 877.942C340.729 880.541 342.95 882.534 345.652 882.534C346.269 882.534 346.854 882.409 347.408 882.215L379.855 938.701C378.631 939.7 377.834 941.204 377.834 942.911C377.834 944.619 378.631 946.123 379.855 947.122L347.408 1003.61C346.854 1003.42 346.269 1003.29 345.652 1003.29C342.95 1003.29 340.729 1005.28 340.322 1007.88L275.088 1007.88C274.678 1005.28 272.457 1003.29 269.757 1003.29C269.095 1003.29 268.468 1003.43 267.881 1003.64L235.418 947.122C236.639 946.123 237.438 944.619 237.438 942.911C237.438 941.204 236.642 939.7 235.418 938.703L267.884 882.18Z" fill="url(#paint4_radial_0_1)"/>
<path fillRule="evenodd" clipRule="evenodd" d="M69.2384 455.745C69.4719 456.35 69.6125 456.997 69.6125 457.681C69.6125 460.674 67.1746 463.099 64.1693 463.099C61.1615 463.099 58.7236 460.674 58.7236 457.681C58.7236 456.997 58.8642 456.35 59.0977 455.745L2.30088 423.124C1.30918 424.176 -0.0892583 424.838 -1.65341 424.838C-4.66122 424.838 -7.09912 422.415 -7.09912 419.423C-7.09912 416.723 -5.10562 414.502 -2.50707 414.092L-2.50708 349.705C-5.10562 349.295 -7.09912 347.074 -7.09912 344.372C-7.09912 341.382 -4.66122 338.957 -1.65341 338.957C0.0187118 338.957 1.49497 339.721 2.4917 340.9L59.0977 308.389C58.8642 307.784 58.7236 307.137 58.7236 306.453C58.7236 303.753 60.7171 301.532 63.3156 301.123L63.3156 236.21C60.7171 235.801 58.7236 233.58 58.7236 230.88C58.7236 230.196 58.8642 229.549 59.0977 228.944L2.59714 196.493C1.5979 197.742 0.0764494 198.561 -1.65341 198.561C-4.66122 198.561 -7.09912 196.136 -7.09912 193.144C-7.09912 190.154 -4.66122 187.728 -1.65341 187.728C1.35437 187.728 3.78971 190.154 3.78971 193.144C3.78971 193.806 3.65418 194.432 3.43573 195.019L59.9589 227.483C60.9556 226.262 62.462 225.462 64.1693 225.462C65.8741 225.462 67.3805 226.259 68.3772 227.483L124.9 195.019C124.682 194.432 124.546 193.806 124.546 193.144C124.546 190.444 126.54 188.221 129.141 187.813L129.141 122.579C126.54 122.172 124.546 119.951 124.546 117.249C124.546 116.629 124.672 116.047 124.865 115.493L68.2617 82.979C67.2625 84.1204 65.8088 84.8573 64.1693 84.8573C61.1615 84.8573 58.7236 82.4319 58.7236 79.4421C58.7236 76.742 60.7171 74.5215 63.3156 74.1118L63.3156 72.2909L65.0179 72.2909L65.0179 74.1118C67.619 74.519 69.6125 76.7395 69.6125 79.4421C69.6125 80.1914 69.4593 80.9058 69.1831 81.5527L125.664 113.994C126.655 112.69 128.217 111.833 129.99 111.833C131.765 111.833 133.324 112.69 134.318 113.994L190.741 81.5852C190.51 80.9832 190.369 80.3338 190.369 79.6519C190.369 76.9493 192.363 74.7288 194.961 74.3191L194.961 9.40926C192.363 8.99962 190.369 6.7791 190.369 4.0765C190.369 3.25972 190.565 2.4904 190.889 1.79602L190.796 1.74357L191.65 0.27487L191.845 0.38727C192.84 -0.669291 194.243 -1.33869 195.812 -1.33869C197.442 -1.33869 198.885 -0.614336 199.882 0.512163L256.528 -32.024C256.322 -32.5934 256.189 -33.2004 256.189 -33.8423C256.189 -36.5424 258.183 -38.763 260.784 -39.1726L260.784 -43.0991L262.486 -43.0991L262.486 -39.1726C265.087 -38.763 267.078 -36.5424 267.078 -33.8423C267.078 -33.2004 266.948 -32.5934 266.742 -32.024L323.144 0.372284C324.141 -0.921566 325.693 -1.77081 327.458 -1.77081C330.463 -1.77081 332.901 0.654533 332.901 3.64687C332.901 6.34698 330.907 8.56751 328.309 8.97714L328.309 74.3191C330.907 74.7288 332.901 76.9493 332.901 79.6519C332.901 82.6417 330.463 85.0671 327.458 85.0671C325.683 85.0671 324.124 84.2128 323.129 82.9065L266.707 115.315C266.938 115.917 267.078 116.564 267.078 117.249C267.078 119.951 265.087 122.172 262.486 122.579L262.486 187.813C265.087 188.223 267.078 190.444 267.078 193.144C267.078 193.828 266.938 194.477 266.707 195.079L323.207 227.531C324.204 226.282 325.728 225.462 327.458 225.462C330.463 225.462 332.901 227.888 332.901 230.88C332.901 233.58 330.907 235.801 328.309 236.21L328.309 301.123C330.907 301.532 332.901 303.753 332.901 306.453C332.901 309.445 330.463 311.871 327.458 311.871C325.786 311.871 324.309 311.104 323.31 309.925L266.707 342.439C266.938 343.041 267.078 343.687 267.078 344.372C267.078 347.074 265.087 349.295 262.486 349.705L262.486 354.718L260.784 354.718L260.784 349.705C258.183 349.295 256.189 347.074 256.189 344.372C256.189 343.655 256.337 342.971 256.594 342.344L256.541 342.314L257.394 340.848L257.487 340.9C258.487 339.721 259.963 338.957 261.635 338.957C263.342 338.957 264.846 339.753 265.843 340.975L322.416 308.484C322.16 307.854 322.012 307.172 322.012 306.453C322.012 303.753 324.006 301.532 326.607 301.123L326.607 236.21C324.006 235.801 322.012 233.58 322.012 230.88C322.012 230.218 322.148 229.591 322.366 229.007L265.845 196.541C264.846 197.765 263.342 198.561 261.635 198.561C259.928 198.561 258.424 197.765 257.425 196.541L200.904 229.007C201.12 229.594 201.258 230.218 201.258 230.88C201.258 233.58 199.264 235.801 196.663 236.21L196.663 301.123C199.264 301.532 201.258 303.753 201.258 306.453C201.258 309.445 198.82 311.871 195.812 311.871C192.804 311.871 190.369 309.445 190.369 306.453C190.369 303.753 192.363 301.532 194.961 301.123L194.961 236.21C192.363 235.801 190.369 233.58 190.369 230.88C190.369 230.218 190.505 229.591 190.723 229.007L134.2 196.541C133.201 197.765 131.697 198.561 129.99 198.561C128.285 198.561 126.778 197.765 125.782 196.541L69.2585 229.007C69.4769 229.591 69.6125 230.218 69.6125 230.88C69.6125 233.58 67.619 235.801 65.0179 236.21L65.0179 301.123C67.619 301.532 69.6125 303.753 69.6125 306.453C69.6125 307.137 69.4719 307.787 69.2384 308.389L126.949 341.534C127.908 339.993 129.61 338.957 131.566 338.957C134.574 338.957 137.012 341.382 137.012 344.372C137.012 347.364 134.574 349.79 131.566 349.79C128.561 349.79 126.123 347.364 126.123 344.372C126.123 343.97 126.173 343.583 126.256 343.205L68.3144 309.925C67.3177 311.104 65.8389 311.871 64.1693 311.871C62.462 311.871 60.9556 311.074 59.9589 309.85L3.38804 342.344C3.64414 342.971 3.78971 343.653 3.78971 344.372C3.78971 347.074 1.79624 349.295 -0.802333 349.705L-0.802332 414.092C1.79624 414.5 3.78971 416.72 3.78971 419.423C3.78971 420.247 3.59141 421.019 3.25998 421.718L59.9589 454.284C60.9581 453.063 62.462 452.266 64.1693 452.266C65.8741 452.266 67.378 453.063 68.3772 454.284L125.076 421.718C124.745 421.019 124.546 420.247 124.546 419.423C124.546 416.43 126.984 414.005 129.99 414.005C132.997 414.005 135.435 416.43 135.435 419.423C135.435 422.415 132.997 424.838 129.99 424.838C128.428 424.838 127.027 424.176 126.035 423.124L69.2384 455.745ZM200.939 81.4079C201.13 80.8533 201.258 80.2689 201.258 79.6519C201.258 76.9493 199.264 74.7288 196.663 74.3191L196.663 9.40928C199.264 8.99964 201.258 6.77912 201.258 4.07651C201.258 3.31469 201.097 2.59283 200.811 1.93591L257.349 -30.5378C258.343 -29.2614 259.885 -28.4246 261.635 -28.4246C263.385 -28.4246 264.924 -29.2614 265.921 -30.5378L322.338 1.86597C322.14 2.42548 322.012 3.01995 322.012 3.64689C322.012 6.347 324.006 8.57002 326.607 8.97716L326.607 74.3191C324.006 74.7288 322.012 76.9493 322.012 79.6519C322.012 80.2689 322.138 80.8533 322.331 81.4079L265.845 113.852C264.846 112.63 263.342 111.833 261.635 111.833C259.928 111.833 258.424 112.63 257.425 113.852L200.939 81.4079ZM135.081 195.017C135.3 194.432 135.435 193.806 135.435 193.144C135.435 190.443 133.442 188.223 130.843 187.813L130.843 122.579C133.442 122.172 135.435 119.951 135.435 117.248C135.435 116.632 135.31 116.047 135.116 115.493L191.602 83.0464C192.601 84.2703 194.105 85.0671 195.812 85.0671C197.52 85.0671 199.023 84.2703 200.023 83.0464L256.508 115.493C256.317 116.047 256.189 116.632 256.189 117.248C256.189 119.951 258.183 122.172 260.784 122.579L260.784 187.813C258.183 188.223 256.189 190.443 256.189 193.144C256.189 193.806 256.327 194.432 256.546 195.019L200.023 227.483C199.023 226.262 197.52 225.462 195.812 225.462C194.105 225.462 192.601 226.259 191.604 227.483L135.081 195.017Z" fill="url(#paint5_radial_0_1)"/>
<defs>
<radialGradient id="paint0_radial_0_1" cx="0" cy="0" r="1" gradientUnits="userSpaceOnUse" gradientTransform="translate(1298 136) rotate(109.733) scale(195.479 291.032)">
<stop stop-color="#1482FC"/>
<stop offset="1" stop-color="#121639"/>
</radialGradient>
<radialGradient id="paint1_radial_0_1" cx="0" cy="0" r="1" gradientUnits="userSpaceOnUse" gradientTransform="translate(928 337) rotate(109.733) scale(195.479 291.032)">
<stop stop-color="#1482FC"/>
<stop offset="1" stop-color="#121639"/>
</radialGradient>
<radialGradient id="paint2_radial_0_1" cx="0" cy="0" r="1" gradientUnits="userSpaceOnUse" gradientTransform="translate(530 603) rotate(109.733) scale(195.479 291.032)">
<stop stop-color="#1482FC"/>
<stop offset="1" stop-color="#121639"/>
</radialGradient>
<radialGradient id="paint3_radial_0_1" cx="0" cy="0" r="1" gradientUnits="userSpaceOnUse" gradientTransform="translate(1266.2 855) rotate(-79.8103) scale(230.638 343.378)">
<stop stop-color="#1482FC"/>
<stop offset="1" stop-color="#121639"/>
</radialGradient>
<radialGradient id="paint4_radial_0_1" cx="0" cy="0" r="1" gradientUnits="userSpaceOnUse" gradientTransform="translate(212 944) rotate(-70.2673) scale(195.479 291.032)">
<stop stop-color="#1482FC"/>
<stop offset="1" stop-color="#121639"/>
</radialGradient>
<radialGradient id="paint5_radial_0_1" cx="0" cy="0" r="1" gradientUnits="userSpaceOnUse" gradientTransform="translate(196.901 250.901) rotate(-160.267) scale(195.479 291.032)">
<stop stop-color="#1482FC"/>
<stop offset="1" stop-color="#121639"/>
</radialGradient>
</defs>
</svg>
